<svg width="406" height="183" viewBox="0 0 406 183" fill="none" xmlns="http://www.w3.org/2000/svg">
<g clip-path="url(#clip0_1717_29946)">
<path d="M367.058 73.7012H354.787V116.08H367.058V73.7012Z" fill="#F2F2F2"/>
<path d="M375.162 108.108L345.317 72.6838L285.41 73.2302L249.068 108.546L249.803 109.017H249.54V182.474H375.082V109.017L375.162 108.108Z" fill="#F2F2F2"/>
<path d="M345.348 72.7595L308.063 116.372V182.474H375.082V108.075L345.348 72.7595Z" fill="#E6E6E6"/>
<path d="M348.652 145.919H334.965V157.989H348.652V145.919Z" fill="#3F3D56"/>
<path d="M348.652 125.027H334.965V136.906H348.652V125.027Z" fill="#3F3D56"/>
<path d="M348.652 145.919H334.965V157.989H348.652V145.919Z" fill="white"/>
<path d="M348.652 125.027H334.965V136.906H348.652V125.027Z" fill="white"/>
<path d="M287.827 142.716H274.14V154.786H287.827V142.716Z" fill="white"/>
<path d="M287.827 121.824H274.14V133.703H287.827V121.824Z" fill="white"/>
<path d="M270.223 73.7012H257.952V116.08H270.223V73.7012Z" fill="#F2F2F2"/>
<path d="M278.326 108.108L248.481 72.6838L188.574 73.2302L152.232 108.546L152.967 109.017H152.704V182.474H278.246V109.017L278.326 108.108Z" fill="#F2F2F2"/>
<path d="M248.513 72.7595L211.229 116.372V182.474H278.247V108.075L248.513 72.7595Z" fill="#E6E6E6"/>
<path d="M251.817 145.919H238.13V157.989H251.817V145.919Z" fill="#3F3D56"/>
<path d="M251.817 125.027H238.13V136.906H251.817V125.027Z" fill="#3F3D56"/>
<path d="M251.817 145.919H238.13V157.989H251.817V145.919Z" fill="white"/>
<path d="M251.817 125.027H238.13V136.906H251.817V125.027Z" fill="white"/>
<path d="M190.992 142.716H177.305V154.786H190.992V142.716Z" fill="white"/>
<path d="M190.992 121.824H177.305V133.703H190.992V121.824Z" fill="white"/>
<path d="M171.07 37.1272H154.673V93.756H171.07V37.1272Z" fill="#F2F2F2"/>
<path d="M181.898 83.1028L142.018 35.7681L61.9666 36.4979L13.4062 83.6886L14.3872 84.3178H14.0369V182.474H181.791V84.3178L181.898 83.1028Z" fill="#F2F2F2"/>
<path d="M142.06 35.8687L92.2383 94.1455V182.474H181.791V83.0593L142.06 35.8687Z" fill="#E6E6E6"/>
<path d="M146.475 133.627H128.186V149.755H146.475V133.627Z" fill="#3F3D56"/>
<path d="M146.475 105.711H128.186V121.583H146.475V105.711Z" fill="#3F3D56"/>
<path d="M146.475 133.627H128.186V149.755H146.475V133.627Z" fill="white"/>
<path d="M146.475 105.711H128.186V121.583H146.475V105.711Z" fill="white"/>
<path d="M65.1972 129.348H46.9082V145.476H65.1972V129.348Z" fill="white"/>
<path d="M65.1972 101.431H46.9082V117.304H65.1972V101.431Z" fill="white"/>
<path d="M392.203 182.112H0V182.924H392.203V182.112Z" fill="#3F3D56"/>
<path d="M61.7918 167.184C68.3307 167.184 73.6315 156.393 73.6315 143.082C73.6315 129.77 68.3307 118.979 61.7918 118.979C55.2529 118.979 49.9521 129.77 49.9521 143.082C49.9521 156.393 55.2529 167.184 61.7918 167.184Z" fill="#3F3D56"/>
<path d="M62.8857 182.533C58.1438 154.148 62.838 125.865 62.886 125.583L63.8083 125.739C63.7606 126.02 59.0934 154.154 63.8086 182.38L62.8857 182.533Z" fill="#297AC3"/>
<path d="M72.216 137.899L61.5098 143.612L61.9511 144.435L72.6573 138.722L72.216 137.899Z" fill="#297AC3"/>
<path d="M50.6515 140.761L50.21 141.584L60.9149 147.301L61.3565 146.478L50.6515 140.761Z" fill="#297AC3"/>
<path d="M33.3454 153.052C46.1347 153.052 56.5024 131.946 56.5024 105.911C56.5024 79.8751 46.1347 58.7693 33.3454 58.7693C20.5562 58.7693 10.1885 79.8751 10.1885 105.911C10.1885 131.946 20.5562 153.052 33.3454 153.052Z" fill="#297AC3"/>
<path d="M35.9245 183C26.6623 127.555 35.8311 72.3118 35.9247 71.7603L36.8471 71.9161C36.7537 72.4663 27.6118 127.561 36.8473 182.847L35.9245 183Z" fill="#3F3D56"/>
<path d="M53.9436 96.1669L33.0029 107.342L33.4442 108.165L54.3849 96.9901L53.9436 96.1669Z" fill="#3F3D56"/>
<path d="M11.3449 101.765L10.9033 102.588L31.8409 113.769L32.2824 112.946L11.3449 101.765Z" fill="#3F3D56"/>
<path d="M88.1904 142.046C105.691 142.046 119.879 113.165 119.879 77.5374C119.879 41.91 105.691 13.0283 88.1904 13.0283C70.6894 13.0283 56.502 41.91 56.502 77.5374C56.502 113.165 70.6894 142.046 88.1904 142.046Z" fill="#297AC3"/>
<path d="M91.8901 183C79.2202 107.156 91.7621 31.5883 91.8903 30.834L92.8127 30.9899C92.6847 31.7429 80.1697 107.162 92.8129 182.847L91.8901 183Z" fill="#3F3D56"/>
<path d="M116.459 64.3554L87.8037 79.6477L88.245 80.4709L116.901 65.1786L116.459 64.3554Z" fill="#3F3D56"/>
<path d="M58.0031 72.016L57.5615 72.8391L86.213 88.1389L86.6546 87.3158L58.0031 72.016Z" fill="#3F3D56"/>
<path d="M354.395 167.184C360.934 167.184 366.235 156.393 366.235 143.082C366.235 129.77 360.934 118.979 354.395 118.979C347.856 118.979 342.556 129.77 342.556 143.082C342.556 156.393 347.856 167.184 354.395 167.184Z" fill="#3F3D56"/>
<path d="M353.303 182.533C358.045 154.148 353.35 125.865 353.302 125.583L352.38 125.739C352.428 126.02 357.095 154.154 352.38 182.38L353.303 182.533Z" fill="#297AC3"/>
<path d="M343.973 137.899L343.531 138.722L354.238 144.436L354.679 143.612L343.973 137.899Z" fill="#297AC3"/>
<path d="M365.536 140.761L354.831 146.478L355.273 147.301L365.978 141.584L365.536 140.761Z" fill="#297AC3"/>
<path d="M382.842 153.052C395.632 153.052 405.999 131.946 405.999 105.911C405.999 79.8751 395.632 58.7693 382.842 58.7693C370.053 58.7693 359.686 79.8751 359.686 105.911C359.686 131.946 370.053 153.052 382.842 153.052Z" fill="#297AC3"/>
<path d="M380.264 183C389.526 127.555 380.357 72.3118 380.263 71.7603L379.341 71.9161C379.434 72.4663 388.576 127.561 379.341 182.847L380.264 183Z" fill="#3F3D56"/>
<path d="M362.244 96.1668L361.803 96.99L382.743 108.165L383.185 107.342L362.244 96.1668Z" fill="#3F3D56"/>
<path d="M404.844 101.765L383.906 112.946L384.348 113.769L405.285 102.588L404.844 101.765Z" fill="#3F3D56"/>
<path d="M327.998 142.046C345.499 142.046 359.686 113.165 359.686 77.5374C359.686 41.91 345.499 13.0283 327.998 13.0283C310.497 13.0283 296.31 41.91 296.31 77.5374C296.31 113.165 310.497 142.046 327.998 142.046Z" fill="#297AC3"/>
<path d="M324.298 183C336.968 107.156 324.426 31.5883 324.298 30.834L323.375 30.9899C323.503 31.7429 336.018 107.162 323.375 182.847L324.298 183Z" fill="#3F3D56"/>
<path d="M299.728 64.3555L299.287 65.1787L327.943 80.471L328.384 79.6478L299.728 64.3555Z" fill="#3F3D56"/>
<path d="M358.185 72.0161L329.533 87.3159L329.975 88.139L358.626 72.8392L358.185 72.0161Z" fill="#3F3D56"/>
<path d="M239.892 41.1889L243.637 38.2001C240.728 37.8798 239.532 39.463 239.043 40.7162C236.77 39.7744 234.295 41.0087 234.295 41.0087L241.789 43.7231C241.411 42.7156 240.753 41.8365 239.892 41.1889V41.1889Z" fill="#3F3D56"/>
<path d="M148.347 14.8029L152.092 11.8141C149.183 11.4938 147.987 13.0771 147.498 14.3302C145.225 13.3884 142.75 14.6227 142.75 14.6227L150.244 17.3371C149.866 16.3296 149.208 15.4505 148.347 14.8029V14.8029Z" fill="#3F3D56"/>
<path d="M297.668 3.03069L301.414 0.041857C298.504 -0.278428 297.308 1.30484 296.819 2.55801C294.546 1.61623 292.071 2.85047 292.071 2.85047L299.565 5.56485C299.187 4.55736 298.529 3.67828 297.668 3.03069V3.03069Z" fill="#3F3D56"/>
<path d="M305.231 177.416C304.235 177.416 303.257 177.678 302.395 178.175C301.52 177.385 300.433 176.866 299.268 176.68C298.103 176.494 296.908 176.65 295.83 177.129C294.751 177.607 293.836 178.388 293.193 179.375C292.551 180.363 292.21 181.516 292.211 182.693H310.906C310.805 181.26 310.162 179.92 309.109 178.94C308.056 177.961 306.67 177.416 305.231 177.416V177.416Z" fill="#3F3D56"/>
<path d="M115.222 177.416C114.226 177.416 113.248 177.678 112.386 178.175C111.511 177.385 110.425 176.866 109.259 176.68C108.094 176.494 106.899 176.65 105.821 177.129C104.743 177.607 103.827 178.388 103.184 179.375C102.542 180.363 102.201 181.516 102.202 182.693H120.898C120.796 181.26 120.154 179.92 119.1 178.94C118.047 177.961 116.662 177.416 115.222 177.416V177.416Z" fill="#3F3D56"/>
<path d="M212.464 177.416C211.469 177.416 210.49 177.678 209.629 178.175C208.753 177.385 207.667 176.866 206.501 176.68C205.336 176.494 204.142 176.65 203.063 177.129C201.985 177.607 201.069 178.388 200.427 179.375C199.784 180.363 199.443 181.516 199.444 182.693H218.14C218.038 181.26 217.396 179.92 216.343 178.94C215.29 177.961 213.904 177.416 212.464 177.416V177.416Z" fill="#3F3D56"/>
<path d="M191.945 164.091H138.007V165.827H146.419V182.319H148.159V165.827H180.923V182.319H182.663V165.827H191.945V164.091Z" fill="#3F3D56"/>
<path d="M192.05 158.898H138.112V160.634H192.05V158.898Z" fill="#3F3D56"/>
<path d="M192.05 154.558H138.112V156.294H192.05V154.558Z" fill="#3F3D56"/>
<path d="M192.05 150.218H138.112V151.954H192.05V150.218Z" fill="#3F3D56"/>
<path d="M276.166 164.091H222.229V165.827H230.641V182.319H232.38V165.827H265.144V182.319H266.885V165.827H276.166V164.091Z" fill="#3F3D56"/>
<path d="M276.273 158.898H222.335V160.634H276.273V158.898Z" fill="#3F3D56"/>
<path d="M276.273 154.558H222.335V156.294H276.273V154.558Z" fill="#3F3D56"/>
<path d="M276.273 150.218H222.335V151.954H276.273V150.218Z" fill="#3F3D56"/>
</g>
<defs>
<clipPath id="clip0_1717_29946">
<rect width="406" height="183" fill="white"/>
</clipPath>
</defs>
</svg>
