<svg width="230" height="180" viewBox="0 0 230 180" fill="none" xmlns="http://www.w3.org/2000/svg">
<g clip-path="url(#clip0_2675_213799)">
<path d="M20.6192 154.91C21.1236 154.031 21.3841 153.033 21.3738 152.02C21.3738 149.41 19.7585 147.293 17.7579 147.293C15.7572 147.293 14.1419 149.41 14.1419 152.02C14.1316 153.033 14.3921 154.031 14.8965 154.91C14.4017 155.792 14.1419 156.787 14.1419 157.799C14.1419 158.81 14.4017 159.805 14.8965 160.688C14.4017 161.57 14.1419 162.565 14.1419 163.577C14.1419 164.588 14.4017 165.583 14.8965 166.466C14.4017 167.348 14.1419 168.343 14.1419 169.355C14.1419 170.366 14.4017 171.361 14.8965 172.244C14.3918 173.122 14.1313 174.12 14.1419 175.133C14.1419 177.743 15.7572 179.858 17.7579 179.858C19.7585 179.858 21.3738 177.743 21.3738 175.133C21.384 174.121 21.1235 173.124 20.6192 172.246C21.114 171.363 21.3738 170.369 21.3738 169.357C21.3738 168.345 21.114 167.351 20.6192 166.468C21.114 165.585 21.3738 164.59 21.3738 163.579C21.3738 162.567 21.114 161.573 20.6192 160.69C21.114 159.807 21.3738 158.812 21.3738 157.801C21.3738 156.789 21.114 155.795 20.6192 154.912V154.91Z" fill="#3D464E"/>
<path d="M17.7468 150.971C19.7438 150.971 21.3628 148.854 21.3628 146.243C21.3628 143.632 19.7438 141.516 17.7468 141.516C15.7498 141.516 14.1309 143.632 14.1309 146.243C14.1309 148.854 15.7498 150.971 17.7468 150.971Z" fill="#3D464E"/>
<path d="M17.7468 145.193C19.7438 145.193 21.3628 143.077 21.3628 140.466C21.3628 137.855 19.7438 135.738 17.7468 135.738C15.7498 135.738 14.1309 137.855 14.1309 140.466C14.1309 143.077 15.7498 145.193 17.7468 145.193Z" fill="#3D464E"/>
<path d="M4.20587 100.931C3.71291 100.302 3.26344 99.6396 2.86056 98.9495L12.3631 97.3921L2.08522 97.4681C1.09945 95.3261 0.561751 93.0058 0.505013 90.6492C0.448275 88.2927 0.873693 85.9493 1.75524 83.7625L15.5429 90.9044L2.82595 81.5715C4.01364 79.5091 5.61465 77.7133 7.52891 76.2966C9.44317 74.8798 11.6295 73.8725 13.9514 73.3376C16.2732 72.8026 18.6806 72.7515 21.0231 73.1875C23.3657 73.6235 25.5929 74.5372 27.5657 75.8715C29.5386 77.2057 31.2145 78.9319 32.4889 80.9422C33.7633 82.9524 34.6087 85.2034 34.9722 87.5546C35.3358 89.9058 35.2098 92.3066 34.6019 94.6069C33.9941 96.9072 32.9176 99.0577 31.4397 100.924C32.2093 101.902 32.8715 102.959 33.415 104.078L21.0811 110.483L34.2342 106.075C35.1574 108.801 35.3856 111.714 34.8981 114.55C34.4106 117.387 33.2228 120.057 31.442 122.32C33.453 124.871 34.7043 127.936 35.0528 131.163C35.4013 134.391 34.8329 137.652 33.4126 140.572C31.9923 143.493 29.7774 145.955 27.0213 147.678C24.2652 149.401 21.0791 150.314 17.8274 150.314C14.5757 150.314 11.3896 149.401 8.63348 147.678C5.87738 145.955 3.66254 143.493 2.24224 140.572C0.821948 137.652 0.253536 134.391 0.602011 131.163C0.950486 127.936 2.20178 124.871 4.2128 122.32C1.81212 119.27 0.507076 115.504 0.507076 111.625C0.507076 107.747 1.81212 103.98 4.2128 100.931H4.20587Z" fill="#1ABC9C"/>
<path opacity="0.1" d="M35.1574 111.622C35.1633 115.502 33.8575 119.27 31.4515 122.317C33.4625 124.868 34.7138 127.933 35.0623 131.16C35.4108 134.388 34.8423 137.649 33.4221 140.569C32.0018 143.49 29.7869 145.952 27.0308 147.675C24.2747 149.398 21.0886 150.311 17.8369 150.311C14.5852 150.311 11.3991 149.398 8.64297 147.675C5.88687 145.952 3.67203 143.49 2.25173 140.569C0.831437 137.649 0.263026 134.388 0.611502 131.16C0.959977 127.933 2.21127 124.868 4.22229 122.317C1.88473 119.372 35.1574 109.68 35.1574 111.622Z" fill="#101315"/>
<path d="M206.854 160.987C207.238 160.319 207.436 159.56 207.428 158.789C207.428 156.803 206.198 155.195 204.678 155.195C203.157 155.195 201.927 156.808 201.927 158.789C201.919 159.56 202.118 160.319 202.502 160.987C202.125 161.659 201.927 162.415 201.927 163.185C201.927 163.955 202.125 164.711 202.502 165.383C202.125 166.054 201.927 166.811 201.927 167.581C201.927 168.35 202.125 169.107 202.502 169.779C202.125 170.45 201.927 171.206 201.927 171.975C201.927 172.745 202.125 173.501 202.502 174.172C202.118 174.841 201.919 175.599 201.927 176.37C201.927 178.356 203.159 179.966 204.678 179.966C206.196 179.966 207.428 178.354 207.428 176.37C207.436 175.599 207.237 174.841 206.854 174.172C207.23 173.501 207.428 172.745 207.428 171.975C207.428 171.206 207.23 170.45 206.854 169.779C207.23 169.107 207.428 168.35 207.428 167.581C207.428 166.811 207.23 166.054 206.854 165.383C207.23 164.711 207.428 163.955 207.428 163.185C207.428 162.415 207.23 161.659 206.854 160.987Z" fill="#3D464E"/>
<path d="M204.677 157.993C206.196 157.993 207.428 156.383 207.428 154.397C207.428 152.411 206.196 150.801 204.677 150.801C203.158 150.801 201.927 152.411 201.927 154.397C201.927 156.383 203.158 157.993 204.677 157.993Z" fill="#3D464E"/>
<path d="M204.677 153.599C206.196 153.599 207.428 151.989 207.428 150.003C207.428 148.016 206.196 146.406 204.677 146.406C203.158 146.406 201.927 148.016 201.927 150.003C201.927 151.989 203.158 153.599 204.677 153.599Z" fill="#3D464E"/>
<path d="M194.378 119.928C194.002 119.45 193.66 118.947 193.354 118.421L200.584 117.235L192.763 117.295C192.014 115.665 191.606 113.9 191.562 112.107C191.519 110.314 191.842 108.532 192.512 106.868L203.002 112.302L193.329 105.207C194.236 103.644 195.455 102.286 196.911 101.214C198.367 100.143 200.028 99.3824 201.791 98.9798C203.554 98.5771 205.381 98.541 207.158 98.8738C208.936 99.2065 210.626 99.901 212.123 100.914C213.62 101.927 214.892 103.237 215.86 104.762C216.829 106.287 217.472 107.994 217.751 109.778C218.029 111.562 217.937 113.385 217.48 115.132C217.023 116.878 216.211 118.513 215.093 119.933C215.68 120.676 216.184 121.48 216.598 122.331L207.213 127.199L217.223 123.84C217.927 125.914 218.101 128.13 217.73 130.288C217.359 132.446 216.454 134.477 215.098 136.198C216.627 138.139 217.579 140.47 217.843 142.925C218.108 145.38 217.675 147.86 216.595 150.081C215.515 152.302 213.83 154.175 211.734 155.485C209.637 156.796 207.214 157.49 204.741 157.49C202.267 157.49 199.844 156.796 197.748 155.485C195.651 154.175 193.967 152.302 192.886 150.081C191.806 147.86 191.373 145.38 191.638 142.925C191.903 140.47 192.854 138.139 194.383 136.198C192.556 133.879 191.563 131.014 191.563 128.063C191.563 125.112 192.556 122.247 194.383 119.928H194.378Z" fill="#1ABC9C"/>
<path opacity="0.1" d="M217.916 128.061C217.92 131.013 216.926 133.879 215.094 136.196C216.623 138.137 217.574 140.468 217.839 142.923C218.104 145.378 217.671 147.858 216.59 150.079C215.51 152.3 213.825 154.173 211.729 155.483C209.633 156.794 207.209 157.488 204.736 157.488C202.263 157.488 199.84 156.794 197.743 155.483C195.647 154.173 193.962 152.3 192.882 150.079C191.801 147.858 191.369 145.378 191.633 142.923C191.898 140.468 192.849 138.137 194.379 136.196C192.611 133.957 217.916 126.584 217.916 128.061Z" fill="#101315"/>
<path d="M184.15 46.3165H137.945V36.3408C137.946 36.0273 137.884 35.7168 137.764 35.427C137.644 35.1373 137.468 34.8741 137.246 34.6524C137.024 34.4307 136.76 34.2549 136.47 34.1351C136.18 34.0152 135.869 33.9537 135.555 33.954H121.989V23.3263C121.989 22.9279 121.83 22.5459 121.548 22.2642C121.266 21.9825 120.883 21.8242 120.484 21.8242H103C102.601 21.8248 102.219 21.9833 101.937 22.2648C101.655 22.5464 101.496 22.9281 101.495 23.3263V33.954H85.5523C85.2377 33.9531 84.9261 34.0142 84.6353 34.1337C84.3444 34.2532 84.0801 34.4289 83.8574 34.6506C83.6346 34.8723 83.4579 35.1358 83.3373 35.4258C83.2168 35.7158 83.1547 36.0268 83.1547 36.3408V46.3096H39.1057C38.9769 46.3102 38.8537 46.3616 38.7629 46.4527C38.6721 46.5438 38.6211 46.6671 38.6211 46.7957V179.246C38.6211 179.375 38.6721 179.498 38.7629 179.589C38.8537 179.68 38.9769 179.732 39.1057 179.733H68.3863C68.5153 179.732 68.6388 179.68 68.7299 179.589C68.8211 179.498 68.8726 179.375 68.8732 179.246V161.419C68.8738 161.29 68.9253 161.167 69.0165 161.076C69.1077 160.985 69.2312 160.934 69.3601 160.933H81.7286C81.8574 160.934 81.9806 160.985 82.0714 161.076C82.1622 161.167 82.2132 161.291 82.2132 161.419V179.237C82.2132 179.365 82.2639 179.488 82.3542 179.579C82.4445 179.67 82.5672 179.722 82.6955 179.723H140.56C140.688 179.722 140.811 179.67 140.902 179.579C140.993 179.488 141.044 179.366 141.044 179.237V161.419C141.044 161.291 141.095 161.168 141.185 161.077C141.276 160.986 141.398 160.934 141.527 160.933H153.895C154.024 160.933 154.148 160.984 154.24 161.075C154.331 161.167 154.382 161.29 154.382 161.419V179.237C154.383 179.366 154.434 179.489 154.525 179.58C154.617 179.671 154.74 179.723 154.869 179.723H184.15C184.278 179.722 184.401 179.67 184.492 179.579C184.583 179.488 184.634 179.366 184.634 179.237V46.8026C184.634 46.6741 184.583 46.5508 184.493 46.4597C184.402 46.3686 184.278 46.3171 184.15 46.3165ZM63.6304 154.754C63.6298 154.882 63.5788 155.004 63.4885 155.094C63.3982 155.184 63.2759 155.235 63.1482 155.236H45.0615C44.998 155.236 44.935 155.224 44.8762 155.2C44.8174 155.176 44.764 155.14 44.719 155.095C44.6739 155.051 44.6382 154.998 44.6138 154.939C44.5895 154.88 44.5769 154.818 44.5769 154.754V148.587C44.5766 148.523 44.5889 148.46 44.6131 148.401C44.6373 148.342 44.673 148.288 44.718 148.243C44.763 148.198 44.8166 148.162 44.8755 148.138C44.9345 148.113 44.9977 148.101 45.0615 148.101H63.1482C63.2765 148.102 63.3991 148.154 63.4895 148.245C63.5798 148.336 63.6304 148.459 63.6304 148.587V154.754ZM63.6304 138.818C63.6304 138.946 63.5797 139.069 63.4893 139.16C63.3989 139.25 63.2763 139.302 63.1482 139.302H45.0615C44.9977 139.302 44.9345 139.29 44.8755 139.265C44.8166 139.241 44.763 139.205 44.718 139.16C44.673 139.115 44.6373 139.061 44.6131 139.002C44.5889 138.943 44.5766 138.88 44.5769 138.816V132.656C44.5766 132.592 44.5889 132.529 44.6131 132.47C44.6373 132.411 44.673 132.357 44.718 132.312C44.763 132.267 44.8166 132.231 44.8755 132.207C44.9345 132.182 44.9977 132.169 45.0615 132.169H63.1482C63.2118 132.17 63.2747 132.183 63.3334 132.207C63.3921 132.232 63.4454 132.268 63.4901 132.313C63.5349 132.358 63.5704 132.411 63.5944 132.47C63.6185 132.529 63.6307 132.592 63.6304 132.656V138.818ZM63.6304 122.887C63.6304 123.015 63.5797 123.138 63.4893 123.229C63.3989 123.319 63.2763 123.37 63.1482 123.371H45.0615C44.933 123.371 44.8097 123.32 44.7188 123.229C44.628 123.139 44.5769 123.016 44.5769 122.887V116.724C44.5766 116.661 44.5889 116.598 44.6131 116.539C44.6373 116.48 44.673 116.426 44.718 116.381C44.763 116.336 44.8166 116.3 44.8755 116.275C44.9345 116.251 44.9977 116.238 45.0615 116.238H63.1482C63.2765 116.24 63.3991 116.291 63.4895 116.382C63.5798 116.473 63.6304 116.596 63.6304 116.724V122.887ZM63.6304 106.952C63.6307 107.015 63.6185 107.078 63.5944 107.137C63.5703 107.195 63.5348 107.249 63.49 107.294C63.4452 107.338 63.3919 107.374 63.3332 107.398C63.2746 107.423 63.2117 107.435 63.1482 107.435H45.0615C44.9978 107.436 44.9346 107.423 44.8757 107.399C44.8168 107.375 44.7632 107.339 44.7182 107.294C44.6731 107.249 44.6374 107.196 44.6132 107.137C44.5889 107.078 44.5766 107.015 44.5769 106.952V100.786C44.5766 100.723 44.5889 100.66 44.6132 100.601C44.6374 100.542 44.6731 100.489 44.7182 100.444C44.7632 100.399 44.8168 100.363 44.8757 100.339C44.9346 100.315 44.9978 100.302 45.0615 100.303H63.1482C63.2117 100.303 63.2746 100.315 63.3332 100.339C63.3919 100.364 63.4452 100.4 63.49 100.444C63.5348 100.489 63.5703 100.543 63.5944 100.601C63.6185 100.66 63.6307 100.723 63.6304 100.786V106.952ZM63.6304 91.0181C63.6304 91.1462 63.5798 91.2692 63.4895 91.3602C63.3991 91.4512 63.2765 91.503 63.1482 91.5042H45.0615C44.9977 91.5042 44.9345 91.4916 44.8755 91.4672C44.8166 91.4427 44.763 91.4069 44.718 91.3617C44.673 91.3165 44.6373 91.2629 44.6131 91.204C44.5889 91.145 44.5766 91.0818 44.5769 91.0181V84.8507C44.5769 84.7873 44.5895 84.7245 44.6138 84.6659C44.6382 84.6073 44.6739 84.5541 44.719 84.5094C44.764 84.4647 44.8174 84.4292 44.8762 84.4052C44.935 84.3811 44.998 84.3689 45.0615 84.3692H63.1482C63.2759 84.3698 63.3982 84.4207 63.4885 84.5109C63.5788 84.601 63.6298 84.7232 63.6304 84.8507V91.0181ZM63.6304 75.087C63.6298 75.2145 63.5788 75.3366 63.4885 75.4268C63.3982 75.5169 63.2759 75.5679 63.1482 75.5685H45.0615C44.998 75.5688 44.935 75.5565 44.8762 75.5325C44.8174 75.5084 44.764 75.473 44.719 75.4283C44.6739 75.3835 44.6382 75.3303 44.6138 75.2718C44.5895 75.2132 44.5769 75.1504 44.5769 75.087V68.9196C44.5769 68.791 44.6279 68.6677 44.7187 68.5766C44.8095 68.4855 44.9328 68.4341 45.0615 68.4334H63.1482C63.2765 68.4347 63.3991 68.4864 63.4895 68.5774C63.5798 68.6685 63.6304 68.7914 63.6304 68.9196V75.087ZM63.6304 59.1512C63.6307 59.2148 63.6185 59.2777 63.5944 59.3365C63.5704 59.3954 63.5349 59.4489 63.4901 59.494C63.4454 59.5391 63.3921 59.575 63.3334 59.5996C63.2747 59.6242 63.2118 59.637 63.1482 59.6373H45.0615C44.9977 59.6373 44.9345 59.6247 44.8755 59.6003C44.8166 59.5758 44.763 59.54 44.718 59.4948C44.673 59.4496 44.6373 59.396 44.6131 59.3371C44.5889 59.2781 44.5766 59.215 44.5769 59.1512V52.9884C44.5766 52.9247 44.5889 52.8615 44.6131 52.8026C44.6373 52.7436 44.673 52.69 44.718 52.6448C44.763 52.5997 44.8166 52.5638 44.8755 52.5394C44.9345 52.5149 44.9977 52.5023 45.0615 52.5023H63.1482C63.2118 52.5026 63.2747 52.5154 63.3334 52.54C63.3921 52.5646 63.4454 52.6005 63.4901 52.6456C63.5349 52.6908 63.5704 52.7443 63.5944 52.8031C63.6185 52.8619 63.6307 52.9249 63.6304 52.9884V59.1512ZM106.505 154.761C106.505 154.824 106.492 154.887 106.468 154.946C106.444 155.004 106.408 155.058 106.363 155.102C106.318 155.147 106.264 155.183 106.206 155.207C106.147 155.231 106.084 155.243 106.02 155.243H87.936C87.8076 155.243 87.6845 155.192 87.5933 155.102C87.5021 155.012 87.4503 154.889 87.4491 154.761V148.587C87.4497 148.458 87.5012 148.335 87.5924 148.244C87.6835 148.153 87.807 148.101 87.936 148.101H106.02C106.084 148.101 106.147 148.113 106.206 148.138C106.265 148.162 106.319 148.198 106.364 148.243C106.409 148.288 106.444 148.342 106.469 148.401C106.493 148.46 106.505 148.523 106.505 148.587V154.761ZM106.505 138.825C106.505 138.889 106.493 138.952 106.469 139.011C106.444 139.07 106.409 139.124 106.364 139.169C106.319 139.214 106.265 139.25 106.206 139.274C106.147 139.299 106.084 139.311 106.02 139.311H87.936C87.8068 139.311 87.683 139.26 87.5917 139.169C87.5004 139.078 87.4491 138.954 87.4491 138.825V132.656C87.4491 132.527 87.5004 132.403 87.5917 132.312C87.683 132.221 87.8068 132.169 87.936 132.169H106.02C106.084 132.169 106.147 132.182 106.206 132.207C106.265 132.231 106.319 132.267 106.364 132.312C106.409 132.357 106.444 132.411 106.469 132.47C106.493 132.529 106.505 132.592 106.505 132.656V138.825ZM106.505 122.894C106.505 123.023 106.454 123.146 106.363 123.236C106.272 123.327 106.149 123.378 106.02 123.378H87.936C87.8072 123.378 87.6837 123.327 87.5925 123.236C87.5013 123.146 87.4497 123.023 87.4491 122.894V116.724C87.4497 116.596 87.5012 116.472 87.5924 116.381C87.6835 116.29 87.807 116.239 87.936 116.238H106.02C106.084 116.238 106.147 116.251 106.206 116.275C106.265 116.3 106.319 116.336 106.364 116.381C106.409 116.426 106.444 116.48 106.469 116.539C106.493 116.598 106.505 116.661 106.505 116.724V122.894ZM106.505 106.958C106.505 107.022 106.493 107.085 106.469 107.144C106.444 107.203 106.409 107.256 106.364 107.301C106.319 107.346 106.265 107.382 106.206 107.406C106.147 107.43 106.084 107.443 106.02 107.442H87.936C87.8721 107.443 87.8089 107.43 87.7498 107.406C87.6908 107.382 87.6371 107.346 87.5918 107.301C87.5466 107.256 87.5107 107.203 87.4862 107.144C87.4617 107.085 87.4491 107.022 87.4491 106.958V100.786C87.4491 100.723 87.4617 100.66 87.4862 100.601C87.5107 100.542 87.5466 100.488 87.5918 100.444C87.6371 100.399 87.6908 100.363 87.7498 100.339C87.8089 100.315 87.8721 100.302 87.936 100.303H106.02C106.084 100.302 106.147 100.315 106.206 100.339C106.265 100.363 106.319 100.399 106.364 100.444C106.409 100.489 106.444 100.542 106.469 100.601C106.493 100.66 106.505 100.723 106.505 100.786V106.958ZM106.505 91.025C106.505 91.0887 106.493 91.1519 106.469 91.2109C106.444 91.2698 106.409 91.3234 106.364 91.3686C106.319 91.4138 106.265 91.4496 106.206 91.4741C106.147 91.4985 106.084 91.5111 106.02 91.5111H87.936C87.807 91.5105 87.6835 91.4591 87.5924 91.3681C87.5012 91.277 87.4497 91.1537 87.4491 91.025V84.8507C87.4503 84.7226 87.5021 84.6001 87.5933 84.5099C87.6845 84.4198 87.8076 84.3692 87.936 84.3692H106.02C106.084 84.3689 106.147 84.3811 106.206 84.4052C106.264 84.4292 106.318 84.4647 106.363 84.5094C106.408 84.5541 106.444 84.6073 106.468 84.6659C106.492 84.7245 106.505 84.7873 106.505 84.8507V91.025ZM106.505 75.0939C106.505 75.1573 106.492 75.2201 106.468 75.2787C106.444 75.3372 106.408 75.3904 106.363 75.4352C106.318 75.4799 106.264 75.5153 106.206 75.5394C106.147 75.5635 106.084 75.5757 106.02 75.5754H87.936C87.8076 75.5754 87.6845 75.5248 87.5933 75.4346C87.5021 75.3445 87.4503 75.222 87.4491 75.0939V68.9196C87.4497 68.7908 87.5012 68.6675 87.5924 68.5765C87.6835 68.4855 87.807 68.4341 87.936 68.4334H106.02C106.149 68.4341 106.272 68.4855 106.363 68.5766C106.454 68.6677 106.505 68.791 106.505 68.9196V75.0939ZM106.505 59.1581C106.505 59.2219 106.493 59.285 106.469 59.344C106.444 59.403 106.409 59.4566 106.364 59.5017C106.319 59.5469 106.265 59.5827 106.206 59.6072C106.147 59.6317 106.084 59.6442 106.02 59.6442H87.936C87.8068 59.6442 87.683 59.593 87.5917 59.5019C87.5004 59.4107 87.4491 59.2871 87.4491 59.1581V52.9884C87.4491 52.8595 87.5004 52.7358 87.5917 52.6447C87.683 52.5535 87.8068 52.5023 87.936 52.5023H106.02C106.084 52.5023 106.147 52.5149 106.206 52.5394C106.265 52.5638 106.319 52.5997 106.364 52.6448C106.409 52.69 106.444 52.7436 106.469 52.8026C106.493 52.8615 106.505 52.9247 106.505 52.9884V59.1581ZM135.811 154.768C135.811 154.832 135.798 154.894 135.773 154.953C135.749 155.012 135.713 155.065 135.667 155.109C135.622 155.154 135.569 155.189 135.51 155.214C135.451 155.238 135.388 155.25 135.324 155.249H117.233C117.105 155.249 116.982 155.199 116.891 155.109C116.8 155.018 116.749 154.896 116.748 154.768V148.587C116.748 148.458 116.799 148.335 116.89 148.244C116.981 148.153 117.104 148.101 117.233 148.101H135.317C135.446 148.101 135.57 148.152 135.661 148.243C135.753 148.334 135.804 148.458 135.804 148.587L135.811 154.768ZM135.811 138.832C135.811 138.896 135.799 138.96 135.775 139.019C135.75 139.078 135.714 139.131 135.669 139.177C135.624 139.222 135.57 139.258 135.511 139.282C135.452 139.306 135.388 139.319 135.324 139.318H117.233C117.104 139.318 116.981 139.266 116.89 139.175C116.799 139.084 116.748 138.961 116.748 138.832V132.656C116.748 132.527 116.799 132.404 116.89 132.313C116.981 132.222 117.104 132.17 117.233 132.169H135.317C135.381 132.169 135.445 132.182 135.504 132.206C135.563 132.23 135.617 132.266 135.662 132.311C135.707 132.356 135.743 132.41 135.768 132.469C135.792 132.528 135.804 132.592 135.804 132.656L135.811 138.832ZM135.811 122.901C135.81 123.03 135.759 123.153 135.668 123.243C135.576 123.334 135.453 123.385 135.324 123.385H117.233C117.104 123.384 116.982 123.333 116.891 123.243C116.8 123.152 116.749 123.029 116.748 122.901V116.724C116.748 116.596 116.799 116.473 116.89 116.382C116.981 116.29 117.104 116.239 117.233 116.238H135.317C135.446 116.238 135.57 116.29 135.661 116.381C135.753 116.472 135.804 116.596 135.804 116.724L135.811 122.901ZM135.811 106.965C135.811 107.029 135.798 107.092 135.774 107.151C135.749 107.21 135.713 107.263 135.668 107.308C135.623 107.353 135.569 107.389 135.51 107.413C135.451 107.437 135.388 107.449 135.324 107.449H117.233C117.169 107.449 117.106 107.437 117.047 107.412C116.989 107.388 116.935 107.352 116.89 107.307C116.845 107.263 116.809 107.209 116.785 107.151C116.761 107.092 116.748 107.029 116.748 106.965V100.786C116.748 100.723 116.761 100.66 116.785 100.601C116.809 100.543 116.845 100.489 116.89 100.444C116.935 100.399 116.989 100.364 117.047 100.339C117.106 100.315 117.169 100.303 117.233 100.303H135.317C135.381 100.302 135.444 100.315 135.503 100.339C135.562 100.363 135.616 100.399 135.661 100.444C135.707 100.488 135.742 100.542 135.767 100.601C135.791 100.66 135.804 100.723 135.804 100.786L135.811 106.965ZM135.811 91.0319C135.811 91.1609 135.76 91.2845 135.668 91.3756C135.577 91.4668 135.453 91.518 135.324 91.518H117.233C117.104 91.5174 116.981 91.466 116.89 91.3748C116.799 91.2838 116.748 91.1605 116.748 91.0319V84.8507C116.749 84.7228 116.8 84.6003 116.891 84.5101C116.982 84.4198 117.105 84.3692 117.233 84.3692H135.317C135.381 84.3689 135.444 84.3811 135.503 84.4051C135.562 84.4292 135.615 84.4646 135.66 84.5093C135.706 84.554 135.742 84.6071 135.766 84.6657C135.791 84.7243 135.804 84.7872 135.804 84.8507L135.811 91.0319ZM135.811 75.1008C135.811 75.1643 135.798 75.2272 135.773 75.2858C135.749 75.3443 135.713 75.3975 135.667 75.4422C135.622 75.4869 135.569 75.5223 135.51 75.5463C135.451 75.5704 135.388 75.5826 135.324 75.5823H117.233C117.105 75.5823 116.982 75.5316 116.891 75.4414C116.8 75.3512 116.749 75.2287 116.748 75.1008V68.9196C116.749 68.7912 116.8 68.6683 116.891 68.5773C116.981 68.4863 117.104 68.4347 117.233 68.4334H135.317C135.446 68.4341 135.57 68.4855 135.661 68.5765C135.752 68.6675 135.803 68.7908 135.804 68.9196L135.811 75.1008ZM135.811 59.165C135.811 59.229 135.799 59.2923 135.775 59.3514C135.75 59.4105 135.714 59.4643 135.669 59.5095C135.624 59.5547 135.57 59.5905 135.511 59.6148C135.452 59.6391 135.388 59.6515 135.324 59.6512H117.233C117.104 59.6505 116.981 59.5991 116.89 59.508C116.799 59.4169 116.748 59.2936 116.748 59.165V52.9884C116.748 52.8599 116.799 52.7366 116.89 52.6455C116.981 52.5544 117.104 52.5029 117.233 52.5023H135.317C135.381 52.502 135.445 52.5144 135.504 52.5387C135.563 52.563 135.617 52.5988 135.662 52.644C135.707 52.6892 135.743 52.7429 135.768 52.802C135.792 52.8612 135.804 52.9245 135.804 52.9884L135.811 59.165ZM178.688 154.754C178.687 154.882 178.635 155.005 178.543 155.095C178.452 155.185 178.329 155.236 178.201 155.236H160.11C160.046 155.236 159.983 155.224 159.924 155.2C159.865 155.176 159.811 155.14 159.766 155.096C159.721 155.051 159.685 154.998 159.66 154.939C159.636 154.881 159.623 154.818 159.623 154.754V148.587C159.623 148.458 159.674 148.334 159.765 148.243C159.857 148.152 159.98 148.101 160.11 148.101H178.194C178.258 148.1 178.322 148.112 178.382 148.136C178.442 148.16 178.496 148.196 178.542 148.241C178.588 148.286 178.624 148.34 178.649 148.399C178.674 148.459 178.687 148.522 178.688 148.587V154.754ZM178.688 138.818C178.688 138.947 178.636 139.071 178.545 139.162C178.454 139.253 178.33 139.305 178.201 139.305H160.11C160.046 139.305 159.982 139.292 159.923 139.268C159.864 139.244 159.81 139.208 159.765 139.163C159.719 139.118 159.683 139.064 159.659 139.005C159.635 138.946 159.622 138.882 159.623 138.818V132.656C159.622 132.592 159.635 132.528 159.659 132.469C159.683 132.41 159.719 132.356 159.765 132.311C159.81 132.266 159.864 132.23 159.923 132.206C159.982 132.182 160.046 132.169 160.11 132.169H178.194C178.323 132.169 178.447 132.221 178.538 132.312C178.63 132.403 178.681 132.527 178.681 132.656L178.688 138.818ZM178.688 122.887C178.687 123.016 178.636 123.139 178.544 123.23C178.453 123.32 178.33 123.371 178.201 123.371H160.11C159.981 123.371 159.857 123.32 159.766 123.23C159.675 123.139 159.623 123.016 159.623 122.887V116.724C159.623 116.596 159.674 116.472 159.765 116.381C159.857 116.29 159.98 116.238 160.11 116.238H178.194C178.258 116.238 178.322 116.25 178.382 116.274C178.442 116.298 178.496 116.334 178.542 116.379C178.588 116.424 178.624 116.478 178.649 116.537C178.674 116.596 178.687 116.66 178.688 116.724V122.887ZM178.688 106.952C178.688 107.015 178.675 107.078 178.651 107.137C178.626 107.196 178.59 107.25 178.545 107.294C178.5 107.339 178.446 107.375 178.387 107.399C178.328 107.423 178.265 107.436 178.201 107.435H160.11C160.046 107.436 159.982 107.423 159.923 107.399C159.864 107.375 159.811 107.339 159.765 107.294C159.72 107.25 159.684 107.196 159.66 107.137C159.635 107.078 159.623 107.015 159.623 106.952V100.786C159.623 100.723 159.635 100.66 159.66 100.601C159.684 100.542 159.72 100.488 159.765 100.444C159.811 100.399 159.864 100.363 159.923 100.339C159.982 100.315 160.046 100.302 160.11 100.303H178.194C178.258 100.302 178.321 100.315 178.38 100.339C178.439 100.363 178.493 100.399 178.538 100.444C178.583 100.488 178.619 100.542 178.644 100.601C178.668 100.66 178.681 100.723 178.681 100.786L178.688 106.952ZM178.688 91.0181C178.687 91.1468 178.636 91.2701 178.544 91.3612C178.453 91.4522 178.33 91.5036 178.201 91.5042H160.11C159.98 91.5042 159.857 91.453 159.765 91.3618C159.674 91.2707 159.623 91.147 159.623 91.0181V84.8507C159.623 84.7872 159.636 84.7243 159.66 84.6657C159.685 84.6071 159.721 84.554 159.766 84.5093C159.811 84.4646 159.865 84.4292 159.924 84.4051C159.983 84.3811 160.046 84.3689 160.11 84.3692H178.194C178.322 84.3692 178.445 84.4198 178.537 84.5099C178.628 84.6001 178.68 84.7226 178.681 84.8507L178.688 91.0181ZM178.688 75.087C178.687 75.2151 178.635 75.3376 178.543 75.4277C178.452 75.5179 178.329 75.5685 178.201 75.5685H160.11C160.046 75.5688 159.983 75.5566 159.924 75.5325C159.865 75.5085 159.811 75.4731 159.766 75.4284C159.721 75.3837 159.685 75.3305 159.66 75.2719C159.636 75.2134 159.623 75.1505 159.623 75.087V68.9196C159.623 68.7908 159.675 68.6675 159.766 68.5765C159.857 68.4855 159.981 68.4341 160.11 68.4334H178.194C178.258 68.4328 178.322 68.4449 178.382 68.4691C178.442 68.4932 178.496 68.5289 178.542 68.574C178.588 68.6192 178.624 68.673 178.649 68.7323C178.674 68.7916 178.687 68.8552 178.688 68.9196V75.087ZM178.688 59.1512C178.688 59.2802 178.636 59.4038 178.545 59.495C178.454 59.5861 178.33 59.6373 178.201 59.6373H160.11C160.046 59.6376 159.982 59.6253 159.923 59.601C159.864 59.5766 159.81 59.5408 159.765 59.4956C159.719 59.4504 159.683 59.3967 159.659 59.3376C159.635 59.2785 159.622 59.2151 159.623 59.1512V52.9884C159.622 52.9245 159.635 52.8612 159.659 52.802C159.683 52.7429 159.719 52.6892 159.765 52.644C159.81 52.5988 159.864 52.563 159.923 52.5387C159.982 52.5144 160.046 52.502 160.11 52.5023H178.194C178.323 52.5023 178.447 52.5535 178.538 52.6447C178.63 52.7358 178.681 52.8595 178.681 52.9884L178.688 59.1512Z" fill="#E5ECF0"/>
<path d="M65.7303 8.674L61.7752 11.1852L64.175 6.83092C63.4958 6.28839 62.6542 5.98832 61.7844 5.9785H61.7221C61.4469 5.98226 61.172 5.96144 60.9006 5.91629L59.5599 6.76411L60.1345 5.72277C59.1856 5.3911 58.3653 4.76964 57.79 3.9465L55.3925 5.46474L56.9085 2.71394C55.5055 1.03213 53.6179 0 51.5411 0C49.0467 0 46.8245 1.48138 45.3915 3.78753C44.9677 4.4783 44.3682 5.04469 43.6541 5.42913C42.9399 5.81356 42.1365 6.00231 41.3256 5.97619H41.1917C38.4388 5.97619 36.2051 9.09331 36.2051 12.9384C36.2051 16.7836 38.4388 19.9007 41.1917 19.9007C41.797 19.8983 42.3925 19.7488 42.927 19.4652C44.7246 18.5437 47.0806 18.5161 48.9613 19.3478C49.7677 19.7103 50.6417 19.8987 51.5261 19.9007C52.4104 19.9027 53.2853 19.7182 54.0933 19.3593C55.9578 18.5437 58.2908 18.5621 60.0745 19.4745C60.6039 19.7527 61.193 19.899 61.7913 19.9007C64.5442 19.9007 66.778 16.7836 66.778 12.9384C66.7929 11.4517 66.4326 9.98511 65.7303 8.674Z" fill="#E5ECF0"/>
<path opacity="0.03" d="M58.2766 18.8686C56.8386 18.5953 55.3517 18.7557 54.0053 19.3294C53.1981 19.6886 52.3243 19.8743 51.4405 19.8743C50.5567 19.8743 49.6828 19.6886 48.8756 19.3294C46.995 18.4954 44.6366 18.5138 42.8414 19.4469C42.3059 19.7298 41.7096 19.8784 41.1038 19.88C38.6577 19.88 36.6248 17.4195 36.2002 14.1756C36.6888 13.8197 37.1041 13.3731 37.4232 12.8601C38.8562 10.5563 41.0784 9.07031 43.5729 9.07031C46.0673 9.07031 48.2618 10.5171 49.6948 12.8072C50.1223 13.497 50.721 14.0648 51.433 14.4555C52.145 14.8463 52.946 15.0467 53.7584 15.0373H53.8207C55.7706 15.035 57.4575 16.5947 58.2766 18.8686Z" fill="#101315"/>
<path d="M201.491 25.906L198.703 27.6707L200.395 24.5997C199.916 24.2178 199.323 24.0062 198.71 23.9984H198.666C198.472 24.0001 198.278 23.9855 198.087 23.9546L197.143 24.5536L197.547 23.8187C196.878 23.5845 196.3 23.146 195.895 22.5654L194.206 23.6505L195.272 21.7107C194.284 20.5265 192.964 19.8008 191.485 19.8008C189.727 19.8008 188.162 20.8444 187.151 22.471C186.853 22.9581 186.431 23.3575 185.927 23.6283C185.424 23.8991 184.857 24.0316 184.285 24.0122H184.191C182.25 24.0122 180.679 26.2101 180.679 28.9194C180.679 31.6288 182.25 33.8266 184.191 33.8266C184.618 33.8249 185.039 33.7198 185.416 33.5202C186.077 33.2001 186.799 33.0269 187.533 33.0126C188.268 32.9983 188.996 33.1432 189.669 33.4373C190.237 33.6909 190.853 33.8221 191.476 33.8221C192.098 33.8221 192.714 33.6909 193.283 33.4373C193.95 33.1483 194.672 33.006 195.399 33.0199C196.127 33.0338 196.843 33.2037 197.499 33.5179C197.873 33.7129 198.288 33.8156 198.71 33.8174C200.651 33.8174 202.224 31.6196 202.224 28.9102C202.236 27.8632 201.984 26.8301 201.491 25.906Z" fill="#E5ECF0"/>
<path opacity="0.03" d="M196.239 33.0954C195.228 32.9046 194.184 33.0177 193.239 33.4202C192.67 33.6746 192.054 33.8061 191.431 33.8061C190.808 33.8061 190.191 33.6746 189.623 33.4202C188.95 33.1261 188.221 32.9812 187.487 32.9955C186.753 33.0098 186.031 33.183 185.37 33.5031C184.993 33.7027 184.573 33.8078 184.147 33.8096C182.423 33.8096 180.988 32.0747 180.686 29.787C181.029 29.5378 181.321 29.2249 181.546 28.8655C182.557 27.239 184.124 26.1953 185.882 26.1953C187.641 26.1953 189.187 27.2251 190.197 28.8355C190.499 29.3212 190.921 29.721 191.423 29.9963C191.924 30.2715 192.489 30.4129 193.061 30.4068H193.105C194.471 30.3837 195.659 31.4827 196.239 33.0954Z" fill="#101315"/>
<path d="M166.635 9.36399L164.685 10.5989L165.869 8.44245C165.533 8.17587 165.119 8.02836 164.69 8.02315H164.657C164.522 8.02597 164.387 8.01594 164.254 7.9932L163.591 8.4125L163.875 7.89644C163.407 7.73401 163.003 7.42746 162.721 7.02097L161.538 7.76973L162.285 6.41276C161.971 6.00713 161.569 5.67655 161.111 5.44502C160.652 5.21349 160.148 5.08683 159.634 5.07422C158.402 5.07422 157.306 5.80684 156.599 6.94495C156.39 7.28551 156.094 7.56476 155.741 7.75448C155.389 7.9442 154.992 8.03767 154.592 8.02545H154.527C153.168 8.02545 152.067 9.56443 152.067 11.4605C152.067 13.3566 153.166 14.8932 154.525 14.8932C154.823 14.892 155.117 14.8185 155.381 14.679C155.843 14.4541 156.349 14.3325 156.863 14.3225C157.377 14.3126 157.887 14.4146 158.358 14.6214C158.759 14.7997 159.193 14.8923 159.632 14.8932C160.065 14.8924 160.493 14.8014 160.889 14.626C161.357 14.4243 161.862 14.3251 162.371 14.335C162.88 14.345 163.381 14.4638 163.841 14.6836C164.103 14.8204 164.394 14.8923 164.69 14.8932C166.047 14.8932 167.15 13.3543 167.15 11.4582C167.156 10.7282 166.979 10.0083 166.635 9.36399Z" fill="#E5ECF0"/>
<path opacity="0.03" d="M162.96 14.382C162.249 14.2482 161.515 14.3284 160.85 14.6123C160.451 14.7902 160.019 14.8822 159.581 14.8822C159.144 14.8822 158.711 14.7902 158.312 14.6123C157.841 14.4067 157.331 14.3054 156.817 14.3154C156.304 14.3253 155.798 14.4463 155.335 14.6699C155.072 14.8102 154.778 14.8838 154.479 14.8842C153.27 14.8842 152.266 13.6701 152.059 12.0689C152.3 11.8936 152.504 11.6729 152.661 11.4192C153.369 10.2811 154.465 9.55078 155.695 9.55078C156.925 9.55078 158.003 10.2719 158.718 11.3939C158.929 11.7346 159.224 12.0151 159.576 12.208C159.927 12.401 160.322 12.4999 160.724 12.4951H160.754C161.723 12.4928 162.553 13.2623 162.96 14.382Z" fill="#101315"/>
<path d="M32.4878 178.483C32.9632 177.607 32.4255 176.534 31.7956 175.751C31.1656 174.967 30.4226 174.156 30.4387 173.159C30.4618 171.728 31.9825 170.883 33.2078 170.125C34.1105 169.561 34.9431 168.893 35.6884 168.134C36 167.842 36.2578 167.497 36.4499 167.116C36.7015 166.556 36.6945 165.92 36.6807 165.307C36.6268 163.264 36.5253 161.223 36.3761 159.184" stroke="#3D464E" stroke-width="4" stroke-miterlimit="10"/>
<path d="M38.6874 159.073C38.6698 158.699 38.5582 158.336 38.3631 158.016C38.1679 157.696 37.8954 157.431 37.5705 157.244L37.0698 158.232L37.0859 157.036C36.6312 156.903 36.1457 156.917 35.6994 157.076C35.2531 157.236 34.8693 157.533 34.6032 157.925C34.3371 158.316 34.2026 158.782 34.2191 159.256C34.2356 159.729 34.4023 160.184 34.695 160.556C34.9878 160.929 35.3914 161.198 35.8477 161.327C36.304 161.455 36.7894 161.435 37.2337 161.27C37.6779 161.105 38.0582 160.803 38.3195 160.408C38.5808 160.013 38.7096 159.546 38.6874 159.073Z" fill="#1ABC9C"/>
<path d="M34.6958 174.184C34.4705 174.622 34.1064 174.973 33.6603 175.183C33.2143 175.393 32.7111 175.45 32.2293 175.345C31.7475 175.24 31.3141 174.978 30.9964 174.602C30.6788 174.225 30.4947 173.754 30.473 173.262C30.4591 172.954 30.5086 172.646 30.6183 172.357C30.7817 171.934 31.0702 171.57 31.4455 171.314C31.8207 171.059 32.265 170.923 32.7193 170.926C33.1735 170.928 33.6163 171.069 33.9887 171.328C34.3611 171.588 34.6456 171.955 34.8043 172.38L33.4082 173.516L34.9427 173.161C34.9441 173.517 34.8594 173.868 34.6958 174.184Z" fill="#1ABC9C"/>
<path d="M33.595 169.847C33.3017 169.861 33.0085 169.817 32.7323 169.717C32.4561 169.618 32.2022 169.465 31.9851 169.267C31.768 169.07 31.592 168.832 31.4672 168.566C31.3424 168.301 31.2711 168.014 31.2575 167.721C31.2406 167.371 31.307 167.023 31.4513 166.705C31.5853 166.406 31.7832 166.141 32.0312 165.927C32.2792 165.713 32.5712 165.556 32.8866 165.467V166.389L33.3919 165.389C33.6853 165.376 33.9784 165.42 34.2547 165.519C34.5309 165.619 34.7848 165.772 35.0019 165.969C35.2189 166.166 35.3949 166.405 35.5198 166.67C35.6446 166.935 35.7159 167.223 35.7295 167.516C35.7429 167.773 35.7109 168.03 35.6349 168.276C35.4984 168.716 35.2292 169.103 34.8641 169.384C34.499 169.665 34.0557 169.827 33.595 169.847Z" fill="#1ABC9C"/>
<path d="M39.0245 166.24C38.6777 166.258 38.3313 166.196 38.0128 166.058C37.6943 165.919 37.4124 165.709 37.1894 165.443C36.9663 165.177 36.8084 164.863 36.7279 164.526C36.6474 164.189 36.6467 163.837 36.7257 163.5C36.8048 163.162 36.9615 162.847 37.1833 162.58C37.4052 162.314 37.6863 162.102 38.0042 161.963C38.3221 161.823 38.6682 161.759 39.0151 161.776C39.362 161.793 39.7002 161.891 40.0029 162.061L39.6083 163.143L40.4206 162.362C40.6364 162.559 40.8113 162.797 40.9352 163.061C41.0592 163.326 41.1297 163.612 41.1428 163.904C41.1538 164.11 41.1352 164.317 41.0875 164.519C40.977 164.99 40.7161 165.413 40.344 165.723C39.9719 166.034 39.5088 166.215 39.0245 166.24Z" fill="#1ABC9C"/>
<path opacity="0.1" d="M38.3874 159.668C37.8705 159.725 37.3698 159.884 36.8506 159.917C36.3314 159.949 35.7637 159.824 35.4361 159.424C35.2836 159.19 35.1456 158.946 35.023 158.696C34.8818 158.476 34.6883 158.295 34.46 158.168C34.3157 158.451 34.2336 158.761 34.2191 159.079C34.2046 159.396 34.2581 159.712 34.3759 160.007C34.4937 160.302 34.6731 160.569 34.9023 160.789C35.1314 161.009 35.405 161.178 35.7047 161.284C36.0044 161.39 36.3233 161.432 36.6402 161.405C36.9572 161.378 37.2647 161.285 37.5424 161.13C37.8202 160.975 38.0616 160.763 38.2507 160.508C38.4398 160.252 38.5722 159.96 38.639 159.649C38.5559 159.654 38.4705 159.659 38.3874 159.668Z" fill="#101315"/>
<path opacity="0.1" d="M39.0243 166.241C38.6387 166.259 38.2551 166.177 37.9107 166.003C37.5662 165.829 37.2727 165.569 37.0585 165.248C36.8444 164.928 36.717 164.557 36.6887 164.173C36.6603 163.788 36.732 163.403 36.8968 163.055C37.0752 163.178 37.228 163.334 37.3467 163.515C37.48 163.77 37.628 164.016 37.7898 164.253C38.1382 164.66 38.7336 164.794 39.2736 164.771C39.8135 164.748 40.3327 164.591 40.8704 164.541C40.9442 164.541 41.0204 164.541 41.1011 164.527C40.9887 164.999 40.7252 165.422 40.3504 165.731C39.9756 166.041 39.5101 166.219 39.0243 166.241Z" fill="#101315"/>
<path opacity="0.1" d="M33.595 169.846C33.3017 169.859 33.0085 169.815 32.7323 169.716C32.4561 169.616 32.2022 169.463 31.9851 169.266C31.768 169.068 31.5921 168.83 31.4672 168.565C31.3424 168.299 31.2711 168.012 31.2575 167.719C31.2406 167.37 31.307 167.022 31.4513 166.703C31.6355 166.827 31.7957 166.983 31.9243 167.164C32.0709 167.424 32.2327 167.674 32.4089 167.915C32.7851 168.337 33.4196 168.484 33.9919 168.47C34.5642 168.456 35.0788 168.323 35.6303 168.279C35.4933 168.717 35.2244 169.103 34.8603 169.383C34.4961 169.663 34.0544 169.825 33.595 169.846Z" fill="#101315"/>
<path opacity="0.1" d="M34.6958 174.182C34.4705 174.62 34.1064 174.972 33.6603 175.182C33.2143 175.392 32.7112 175.449 32.2293 175.343C31.7475 175.238 31.3141 174.977 30.9964 174.6C30.6788 174.224 30.4947 173.753 30.473 173.261C30.4591 172.952 30.5086 172.644 30.6183 172.355C30.8033 172.476 30.969 172.623 31.1099 172.793C31.2947 173.068 31.4943 173.332 31.7075 173.586C32.169 174.033 32.9028 174.219 33.5536 174.235C33.935 174.24 34.3164 174.222 34.6958 174.182Z" fill="#101315"/>
<path d="M29.1162 178.108C29.1162 178.108 30.8815 177.417 31.4238 177.041C31.966 176.666 34.1398 176.21 34.2713 176.811C34.4028 177.412 36.9111 179.834 34.9266 179.85C32.9421 179.866 30.2954 180.177 29.7646 179.85C29.2339 179.523 29.1162 178.108 29.1162 178.108Z" fill="#61707C"/>
<path opacity="0.2" d="M34.9543 179.638C32.9629 179.654 30.3254 179.965 29.7946 179.638C29.3908 179.392 29.2293 178.509 29.1739 178.102H29.1162C29.1162 178.102 29.227 179.523 29.7577 179.846C30.2885 180.168 32.926 179.859 34.9197 179.846C35.4943 179.846 35.6928 179.636 35.6835 179.334C35.6028 179.521 35.3882 179.636 34.9543 179.638Z" fill="#101315"/>
<path d="M155.653 178.608C155.335 178.021 155.697 177.3 156.115 176.765C156.533 176.231 157.038 175.694 157.024 175.023C157.01 174.063 155.988 173.496 155.178 172.987C154.573 172.608 154.014 172.159 153.514 171.65C153.304 171.452 153.131 171.218 153.002 170.959C152.861 170.57 152.809 170.155 152.847 169.743C152.884 168.371 152.953 167.001 153.053 165.633" stroke="#3D464E" stroke-width="4" stroke-miterlimit="10"/>
<path d="M151.491 165.565C151.503 165.314 151.578 165.07 151.709 164.855C151.84 164.641 152.023 164.463 152.241 164.337L152.578 165.001L152.566 164.197C152.727 164.149 152.895 164.13 153.062 164.139C153.359 164.153 153.645 164.255 153.884 164.431C154.123 164.607 154.305 164.85 154.405 165.129C154.506 165.409 154.521 165.711 154.449 165.999C154.377 166.287 154.222 166.547 154.002 166.747C153.782 166.946 153.508 167.076 153.214 167.12C152.92 167.164 152.62 167.12 152.351 166.994C152.082 166.867 151.857 166.664 151.704 166.41C151.551 166.155 151.477 165.861 151.491 165.565Z" fill="#1ABC9C"/>
<path d="M154.169 175.72C154.327 176.025 154.585 176.267 154.901 176.404C155.216 176.542 155.569 176.568 155.901 176.476C156.232 176.385 156.522 176.183 156.722 175.903C156.922 175.624 157.02 175.284 156.999 174.941C156.978 174.599 156.84 174.273 156.607 174.02C156.375 173.767 156.062 173.602 155.722 173.551C155.381 173.501 155.034 173.569 154.738 173.744C154.442 173.919 154.215 174.19 154.096 174.513L155.035 175.273L154.001 175.042C154.003 175.278 154.061 175.51 154.169 175.72Z" fill="#1ABC9C"/>
<path d="M154.919 172.807C155.116 172.816 155.313 172.786 155.499 172.719C155.684 172.653 155.855 172.55 156.001 172.417C156.146 172.285 156.265 172.125 156.348 171.946C156.432 171.768 156.48 171.575 156.488 171.378C156.502 171.141 156.458 170.904 156.359 170.687C156.269 170.486 156.137 170.308 155.97 170.165C155.803 170.021 155.607 169.917 155.395 169.858V170.475L155.053 169.802C154.655 169.784 154.266 169.924 153.972 170.192C153.677 170.46 153.501 170.833 153.482 171.231C153.475 171.404 153.497 171.576 153.546 171.742C153.636 172.04 153.817 172.302 154.063 172.493C154.309 172.683 154.608 172.793 154.919 172.807Z" fill="#1ABC9C"/>
<path d="M151.265 170.385C151.497 170.396 151.729 170.352 151.941 170.259C152.154 170.165 152.342 170.023 152.491 169.844C152.64 169.666 152.745 169.455 152.798 169.229C152.851 169.003 152.851 168.767 152.797 168.541C152.743 168.315 152.638 168.105 152.489 167.926C152.34 167.748 152.152 167.607 151.939 167.513C151.726 167.42 151.494 167.377 151.262 167.389C151.029 167.4 150.803 167.465 150.6 167.579L150.865 168.304L150.321 167.781C150.029 168.049 149.854 168.421 149.836 168.816C149.829 168.955 149.841 169.095 149.873 169.23C149.948 169.548 150.124 169.832 150.375 170.04C150.626 170.248 150.938 170.369 151.265 170.385Z" fill="#1ABC9C"/>
<path opacity="0.1" d="M151.689 165.971C152.035 166.008 152.381 166.117 152.72 166.137C152.895 166.159 153.072 166.14 153.238 166.081C153.403 166.022 153.552 165.924 153.673 165.796C153.775 165.639 153.868 165.476 153.952 165.308C154.047 165.161 154.176 165.039 154.328 164.953C154.448 165.184 154.504 165.442 154.49 165.702C154.472 166.065 154.322 166.408 154.069 166.67C153.816 166.931 153.477 167.091 153.114 167.121C152.752 167.151 152.39 167.049 152.098 166.833C151.805 166.618 151.601 166.303 151.522 165.948C151.58 165.96 151.636 165.965 151.689 165.971Z" fill="#101315"/>
<path opacity="0.1" d="M151.265 170.388C151.524 170.401 151.782 170.346 152.013 170.23C152.245 170.113 152.442 169.939 152.586 169.723C152.73 169.508 152.816 169.259 152.834 169.001C152.853 168.743 152.805 168.484 152.693 168.25C152.569 168.332 152.464 168.439 152.382 168.563C152.293 168.735 152.194 168.9 152.084 169.059C151.955 169.187 151.798 169.285 151.626 169.345C151.454 169.405 151.271 169.426 151.09 169.407C150.727 169.39 150.377 169.287 150.017 169.254C149.966 169.254 149.915 169.254 149.864 169.254C149.943 169.569 150.123 169.85 150.375 170.054C150.628 170.259 150.94 170.376 151.265 170.388Z" fill="#101315"/>
<path opacity="0.1" d="M154.92 172.807C155.117 172.816 155.314 172.787 155.499 172.72C155.685 172.653 155.855 172.55 156.001 172.418C156.147 172.285 156.265 172.125 156.349 171.947C156.432 171.768 156.48 171.575 156.489 171.379C156.502 171.141 156.458 170.904 156.36 170.688C156.237 170.769 156.129 170.872 156.044 170.992C155.945 171.167 155.836 171.336 155.716 171.498C155.575 171.631 155.407 171.732 155.225 171.796C155.042 171.86 154.847 171.885 154.654 171.869C154.281 171.869 153.923 171.77 153.554 171.743C153.643 172.039 153.823 172.301 154.068 172.491C154.312 172.682 154.61 172.792 154.92 172.807Z" fill="#101315"/>
<path opacity="0.1" d="M154.17 175.719C154.348 176.057 154.648 176.315 155.009 176.439C155.37 176.564 155.765 176.547 156.114 176.391C156.463 176.235 156.739 175.952 156.886 175.6C157.033 175.248 157.041 174.853 156.907 174.496C156.783 174.577 156.672 174.675 156.577 174.789C156.453 174.973 156.319 175.151 156.175 175.321C155.827 175.612 155.385 175.768 154.931 175.759C154.677 175.759 154.423 175.746 154.17 175.719Z" fill="#101315"/>
<path d="M157.919 178.196C157.919 178.196 156.733 177.892 156.375 177.638C156.018 177.385 154.552 177.081 154.465 177.488C154.377 177.896 152.683 179.513 154.022 179.525C155.36 179.536 157.13 179.585 157.483 179.368C157.836 179.152 157.919 178.196 157.919 178.196Z" fill="#61707C"/>
<path opacity="0.2" d="M153.996 179.39C155.335 179.39 157.107 179.45 157.458 179.233C157.73 179.069 157.838 178.475 157.873 178.203H157.919C157.919 178.203 157.843 179.159 157.488 179.376C157.132 179.592 155.36 179.542 154.026 179.533C153.639 179.533 153.507 179.392 153.514 179.189C153.562 179.304 153.71 179.39 153.996 179.39Z" fill="#101315"/>
<path d="M163.043 179.527H45.5879V179.988H163.043V179.527Z" fill="#3D464E"/>
<path d="M229.5 179.527H167.196V179.988H229.5V179.527Z" fill="#3D464E"/>
<path d="M41.4343 179.527H2.43652V179.988H41.4343V179.527Z" fill="#3D464E"/>
<path d="M114.381 113.439C113.428 110.614 110.362 109.096 107.533 110.047C104.704 110.998 103.184 114.06 104.137 116.884L106.303 123.306C107.256 126.131 110.322 127.65 113.151 126.698C115.98 125.747 117.501 122.686 116.547 119.861L114.381 113.439Z" fill="#181C1F"/>
<path d="M107.689 116.925C107.689 116.925 109.696 119.802 107.689 120.553C105.681 121.304 104.92 123.433 104.92 123.433C104.92 123.433 104.292 125.937 105.672 126.428C107.052 126.919 112.318 124.05 113.07 123.299C113.822 122.548 113.07 120.535 113.07 120.535C113.07 120.535 111.065 117.77 111.189 116.028C111.314 114.287 107.689 116.925 107.689 116.925Z" fill="#FBBEBE"/>
<path opacity="0.1" d="M107.689 116.925C107.689 116.925 109.696 119.802 107.689 120.553C105.681 121.304 104.92 123.433 104.92 123.433C104.92 123.433 104.292 125.937 105.672 126.428C107.052 126.919 112.318 124.05 113.07 123.299C113.822 122.548 113.07 120.535 113.07 120.535C113.07 120.535 111.065 117.77 111.189 116.028C111.314 114.287 107.689 116.925 107.689 116.925Z" fill="#101315"/>
<path d="M113.082 139.207C113.082 139.207 117.595 148.598 119.102 149.224C120.609 149.851 124.619 149.473 123.364 152.979C122.109 156.486 120.856 154.857 121.98 157.357C123.103 159.856 127.624 163.492 123.987 161.988C120.35 160.483 116.086 156.981 113.705 157.481C111.323 157.981 105.347 155.968 104.013 156.223C102.679 156.479 103.175 150.722 103.175 150.722L106.937 145.213L113.082 139.207Z" fill="#0A3D6D"/>
<path d="M108.692 148.849C108.692 148.849 106.805 155.726 107.815 156.735C107.94 156.859 111.325 157.737 113.584 160.241C114.961 161.759 116.622 162.992 118.474 163.872L116.466 165.998C116.466 165.998 112.082 162.494 109.313 161.868C106.544 161.241 103.671 159.103 103.671 158.364C103.671 157.624 105.552 148.227 105.552 148.227L108.692 148.849Z" fill="#FBBEBE"/>
<path opacity="0.1" d="M108.692 148.849C108.692 148.849 106.805 155.726 107.815 156.735C107.94 156.859 111.325 157.737 113.584 160.241C114.961 161.759 116.622 162.992 118.474 163.872L116.466 165.998C116.466 165.998 112.082 162.494 109.313 161.868C106.544 161.241 103.671 159.103 103.671 158.364C103.671 157.624 105.552 148.227 105.552 148.227L108.692 148.849Z" fill="#101315"/>
<path d="M116.845 162.497C116.845 162.497 117.973 161.746 118.728 162.748C119.483 163.75 122.738 165.25 122.738 165.25C122.738 165.25 124.245 165.25 123.491 166.879L122.738 168.505L122.238 168.256C122.238 168.256 121.737 173.263 118.977 173.765C118.977 173.765 118.1 173.765 118.853 171.509C118.853 171.509 119.981 170.51 117.973 168.514C117.973 168.514 116.093 168.266 116.093 167.639C116.093 167.639 114.588 167.263 115.091 166.257C115.594 165.25 117.722 163.874 116.845 162.497Z" fill="#3D464E"/>
<path d="M102.171 151.48C102.171 151.48 101.67 153.984 101.294 154.359C100.918 154.735 100.918 155.986 101.294 157.354C101.67 158.723 101.922 166.618 100.666 170.5C99.4111 174.382 102.423 172.629 102.423 172.629C102.423 172.629 106.311 162.987 105.808 158.345C105.305 153.703 110.192 148.704 110.192 148.704L104.179 147.598L102.171 151.48Z" fill="#FBBEBE"/>
<path d="M101.004 169.215C101.004 169.215 100.041 169.881 99.9144 170.381C99.8392 170.681 99.6623 170.946 99.4136 171.132C99.4136 171.132 98.4098 172.885 98.4098 174.387C98.4098 175.889 95.2762 178.145 95.2762 178.145C95.2762 178.145 91.8887 179.895 96.5292 179.647C101.17 179.398 102.298 179.144 102.298 179.144V179.647C102.298 179.647 104.303 179.771 104.179 178.264C104.054 176.758 103.923 173.26 103.923 173.26C103.923 173.26 105.427 171.758 104.926 170.632C104.426 169.505 103.542 169.549 103.542 169.549C103.542 169.549 102.785 172.009 102.157 171.883C101.53 171.756 101.089 170.051 101.004 169.215Z" fill="#3D464E"/>
<path d="M102.799 129.57L99.4139 141.714C99.4139 141.714 97.6578 145.971 99.0378 145.845C100.418 145.718 101.043 141.338 101.043 141.338L103.678 135.33L104.054 130.572L102.799 129.57Z" fill="#FBBEBE"/>
<path d="M108.881 117.861C110.751 117.861 112.266 116.348 112.266 114.481C112.266 112.615 110.751 111.102 108.881 111.102C107.012 111.102 105.496 112.615 105.496 114.481C105.496 116.348 107.012 117.861 108.881 117.861Z" fill="#FBBEBE"/>
<path d="M106.059 124.687C106.059 124.687 105.547 122.038 107.056 120.858C107.056 120.858 105.182 120.681 104.806 121.181C104.806 121.181 102.547 121.305 102.547 122.81C102.547 124.314 102.298 126.19 102.171 126.438C102.044 126.687 101.546 127.821 102.298 130.445C103.05 133.069 104.375 134.265 103.613 135.642C103.375 136.127 103.181 136.632 103.032 137.151C102.332 139.412 102.047 141.78 102.189 144.141C102.323 146.376 102.247 149.571 101.036 151.599C99.0303 154.979 113.326 149.597 113.577 148.47C113.829 147.344 114.203 144.337 113.702 142.711C113.4 141.653 113.314 140.546 113.45 139.455C113.45 139.455 114.454 134.949 111.821 132.445L115.331 122.054C115.331 122.054 113.826 120.425 112.698 120.55C111.57 120.674 106.059 124.687 106.059 124.687Z" fill="#0A3D6D"/>
<path d="M113.708 125.061L113.649 125.234C113.247 126.446 110.942 133.609 112.204 135.327C112.204 135.327 113.709 135.703 114.209 133.699C114.71 131.694 116.341 123.935 115.714 123.308C115.086 122.682 113.708 125.061 113.708 125.061Z" fill="#FBBEBE"/>
<path opacity="0.1" d="M113.708 125.061L113.649 125.234C113.247 126.446 110.942 133.609 112.204 135.327C112.204 135.327 113.709 135.703 114.209 133.699C114.71 131.694 116.341 123.935 115.714 123.308C115.086 122.682 113.708 125.061 113.708 125.061Z" fill="#101315"/>
<path d="M115.338 121.93C115.338 121.93 116.342 122.305 116.09 123.312C115.839 124.319 113.09 126.192 113.09 126.192L112.839 124.063L115.338 121.93Z" fill="#0A3D6D"/>
<path d="M110.891 110.44C110.627 110.427 110.362 110.46 110.109 110.536C109.917 110.183 109.635 109.887 109.291 109.679C108.947 109.47 108.554 109.356 108.152 109.348C107.75 109.34 107.353 109.439 107.001 109.634C106.649 109.829 106.356 110.114 106.15 110.459C105.944 110.805 105.834 111.198 105.83 111.6C105.826 112.002 105.929 112.397 106.128 112.746C106.327 113.095 106.615 113.386 106.963 113.587C107.311 113.789 107.706 113.896 108.108 113.895H108.224C108.387 113.886 108.55 113.912 108.702 113.972C108.853 114.033 108.99 114.126 109.101 114.246C109.353 114.522 109.67 114.732 110.023 114.857C110.375 114.981 110.754 115.018 111.124 114.962C111.494 114.906 111.845 114.76 112.145 114.536C112.445 114.313 112.685 114.019 112.845 113.681C113.004 113.342 113.077 112.97 113.058 112.597C113.039 112.223 112.928 111.861 112.735 111.54C112.541 111.22 112.272 110.952 111.951 110.761C111.629 110.569 111.265 110.46 110.891 110.442V110.44Z" fill="#181C1F"/>
<path d="M112.204 132.698C112.204 132.698 115.465 128.44 115.841 126.812C116.217 125.183 113.457 120.928 115.465 121.179C117.472 121.43 117.971 124.934 117.971 124.934C117.971 124.934 118.347 125.561 117.47 127.94C116.593 130.32 115.213 133.7 114.47 134.449C113.727 135.198 111.576 137.329 112.204 132.698Z" fill="#FBBEBE"/>
</g>
<defs>
<clipPath id="clip0_2675_213799">
<rect width="229" height="180" fill="white" transform="translate(0.5)"/>
</clipPath>
</defs>
</svg>
