<svg width="177" height="180" viewBox="0 0 177 180" fill="none" xmlns="http://www.w3.org/2000/svg">
<path d="M119.31 127.604H55.8158C50.4787 127.604 46.1367 122.869 46.1367 117.048V47.798C46.1367 41.9772 50.4787 37.2416 55.8158 37.2416H119.31C124.648 37.2416 128.99 41.9772 128.99 47.798V117.048C128.99 122.869 124.648 127.604 119.31 127.604Z" fill="#E5ECF0"/>
<path d="M62.661 46.1319C59.6559 46.1319 57.2112 48.7982 57.2112 52.0757V61.3791C57.2112 64.6567 59.6559 67.323 62.661 67.323H71.1913C74.1964 67.323 76.6411 64.6567 76.6411 61.3791V52.0757C76.6411 48.7982 74.1964 46.1319 71.1913 46.1319H62.661Z" fill="#C8D4DB"/>
<path d="M62.661 72.3221C59.6559 72.3221 57.2112 74.9884 57.2112 78.266V87.5694C57.2112 90.8469 59.6559 93.5132 62.661 93.5132H71.1913C74.1964 93.5132 76.6411 90.8469 76.6411 87.5694V78.266C76.6411 74.9884 74.1964 72.3221 71.1913 72.3221H62.661Z" fill="#C8D4DB"/>
<path d="M62.661 98.5124C59.6559 98.5124 57.2112 101.179 57.2112 104.456V113.76C57.2112 117.037 59.6559 119.703 62.661 119.703H71.1913C74.1964 119.703 76.6411 117.037 76.6411 113.76V104.456C76.6411 101.179 74.1964 98.5124 71.1913 98.5124H62.661Z" fill="#C8D4DB"/>
<path d="M68.3177 23.4337C64.5311 23.4337 61.4507 26.7933 61.4507 30.9231V42.6456C61.4507 46.7754 64.5311 50.135 68.3177 50.135H79.066C82.8526 50.135 85.933 46.7754 85.933 42.6456V30.9231C85.933 26.7933 82.8526 23.4337 79.066 23.4337H68.3177Z" fill="#1ABC9C"/>
<path d="M103.704 56.1933C99.9173 56.1933 96.8369 59.5529 96.8369 63.6827V75.4053C96.8369 79.5351 99.9173 82.8947 103.704 82.8947H114.452C118.239 82.8947 121.319 79.5351 121.319 75.4053V63.6827C121.319 59.5529 118.239 56.1933 114.452 56.1933H103.704Z" fill="#1ABC9C"/>
<path d="M88.3198 174.185L86.1363 174.165L85.1697 164.766L88.3923 164.795L88.3198 174.185Z" fill="#A0616A"/>
<path d="M81.3257 177.972C81.321 178.558 81.7542 179.041 82.2936 179.046L86.635 179.086L87.395 177.406L87.6741 179.094L89.3122 179.111L88.8986 173.087L88.3287 173.046L86.0041 172.871L85.2541 172.817L85.2409 174.521L81.7535 177.101C81.4882 177.297 81.3284 177.623 81.3257 177.972H81.3257Z" fill="#181C1F"/>
<path d="M99.4294 174.185L97.2459 174.165L96.2793 164.766L99.502 164.795L99.4294 174.185Z" fill="#A0616A"/>
<path d="M92.4353 177.972C92.4306 178.558 92.8638 179.041 93.4032 179.046L97.7446 179.086L98.5046 177.406L98.7838 179.094L100.422 179.111L100.008 173.087L99.4383 173.046L97.1137 172.871L96.3637 172.817L96.3506 174.521L92.8631 177.101C92.5978 177.297 92.438 177.623 92.4353 177.972Z" fill="#181C1F"/>
<path d="M79.7512 98.1884L88.6021 98.4933L96.9873 100.526C96.9873 100.526 96.1487 101.643 98.9438 104.692C98.9438 104.692 102.67 111.805 100.062 118.714L98.9438 146.353C98.9438 146.353 102.204 165.836 99.7129 172.037L96.4212 172.261L90.8512 146.578L88.1363 118.917L86.832 146.15C86.832 146.15 91.8219 164.841 88.671 172.261L85.1058 172.037L79.0059 146.15C79.0059 146.15 76.3972 116.275 76.7698 110.585C77.1425 104.895 79.7512 98.1884 79.7512 98.1884H79.7512Z" fill="#181C1F"/>
<path d="M109.475 54.5151C108.265 54.8568 107.538 56.2036 107.851 57.5232C107.995 58.1278 108.333 58.6198 108.772 58.9447L108.772 58.9481L108.601 63.4824L111.782 65.0882L112.036 58.1106L112.014 58.1114C112.29 57.5754 112.385 56.9278 112.233 56.2858C111.919 54.9662 110.685 54.1734 109.475 54.5151V54.5151Z" fill="#A0616A"/>
<path d="M91.6931 70.6979C91.0247 69.9754 90.637 68.9958 90.6225 67.9306C90.603 66.5015 91.2596 65.2045 92.3789 64.4611C93.6678 63.6049 95.2796 63.6916 96.4852 64.6815L106.476 72.8855L108.256 61.067L112.078 62.4088L111.166 77.7982C111.102 78.8747 110.544 79.823 109.674 80.3349C108.803 80.8468 107.77 80.834 106.911 80.3006L92.4726 71.3418C92.1826 71.1618 91.9214 70.9448 91.6931 70.6979V70.6979Z" fill="#3D464E"/>
<path d="M76.4592 47.9044C77.0979 49.0761 76.7447 50.5907 75.6703 51.2872C75.1781 51.6064 74.6203 51.696 74.0984 51.5893L74.0963 51.5918L71.2911 54.9436L67.9951 53.641L72.3191 48.4909L72.3344 48.5084C72.4845 47.9159 72.8348 47.3829 73.3575 47.044C74.4319 46.3474 75.8205 46.7326 76.4592 47.9044Z" fill="#A0616A"/>
<path d="M77.6709 72.9093L61.6345 68.1849C60.6797 67.9035 59.9379 67.1195 59.6501 66.0874C59.3623 65.0554 59.5784 63.9536 60.228 63.1401L69.5149 51.5112L73.0952 53.4931L66.7301 63.2529L79.1209 65.0983C80.6161 65.3211 81.8166 66.4972 82.1793 68.0949C82.4942 69.4823 82.1232 70.9076 81.1869 71.9074C80.4889 72.6528 79.5812 73.0507 78.6401 73.0506C78.3186 73.0506 77.9931 73.0041 77.6709 72.9093H77.6709Z" fill="#3D464E"/>
<path d="M100.534 102.255L78.1087 103.376C77.4928 102.356 77.6596 100.823 78.5221 98.9019C81.7787 91.6499 79.3054 77.9306 77.6416 70.7869C77.1748 68.7825 78.428 66.7899 80.3147 66.5842L82.4291 66.3535L84.3835 59.8465H91.2286L94.0684 63.3849L98.8877 66.5779C98.0105 76.4327 94.2728 90.3484 99.5976 97.3271C100.762 98.8534 101.092 100.504 100.534 102.255Z" fill="#3D464E"/>
<path d="M86.9354 59.9968C90.6177 59.9968 93.6027 56.7412 93.6027 52.7251C93.6027 48.7091 90.6177 45.4535 86.9354 45.4535C83.2531 45.4535 80.2681 48.7091 80.2681 52.7251C80.2681 56.7412 83.2531 59.9968 86.9354 59.9968Z" fill="#A0616A"/>
<path d="M94.4802 48.0705C95.4078 44.3819 85.2976 41.2189 83.3329 44.1893C83.0597 43.767 82.05 43.5105 81.5868 43.64C81.1235 43.7696 80.734 44.0935 80.3539 44.407C79.8312 44.8448 79.2896 45.2982 78.9689 45.9278C78.6458 46.5548 78.5959 47.4098 79.0307 47.9539C79.3751 48.3866 79.9804 50.6859 80.4983 50.7999C80.8594 50.8802 81.1634 50.9449 81.4248 50.9916C81.6576 50.6211 82.2513 50.1557 82.2085 49.7075C82.5601 49.9614 82.4316 50.4081 82.3608 50.8646C82.1247 52.3849 76.8068 64.1537 79.8526 60.6857C80.1543 60.88 80.5273 61.0614 80.9573 61.2272C81.6866 60.0276 82.2852 58.6129 82.6796 57.1335L82.6824 57.1609C82.8181 58.4465 83.6796 59.5014 84.8193 59.8616C89.3914 61.3061 93.0896 59.1864 94.3618 55.3638C93.8961 54.3326 93.6932 54.4446 93.7349 54.414C94.3163 53.9866 95.1153 54.2661 95.3652 54.9805C95.4389 55.1912 95.5058 55.371 95.5638 55.5063C96.2266 52.9206 97.0149 53.2938 94.4802 48.0705H94.4802Z" fill="#181C1F"/>
<path d="M91.326 45.3943L90.8589 42.7903C90.8197 42.5714 90.7824 42.3339 90.8729 42.1339C90.9892 41.8769 91.2881 41.7704 91.5482 41.8114C91.8082 41.8523 92.0028 42.1114 92.2615 42.1613C93.1611 42.3348 94.3503 41.3656 94.6726 43.8174C94.807 44.8396 96.3026 44.9476 96.8021 45.8249C97.3016 46.7022 97.3629 47.9685 96.6812 48.6853C96.1368 49.2577 95.2625 49.3237 94.5554 49.0313C93.8484 48.7389 93.2809 48.1483 92.7852 47.5254C92.2895 46.9026 91.8406 46.2286 91.2689 45.6888" fill="#181C1F"/>
<path d="M94.8362 49.355C93.0118 49.077 91.7682 48.3534 91.1401 47.2043C90.318 45.7001 90.8687 44.0439 90.8925 43.9741L91.2781 44.1305C91.273 44.1457 90.7734 45.6618 91.4957 46.9784C92.0576 48.0026 93.2006 48.6527 94.893 48.9106L94.8362 49.355Z" fill="#1ABC9C"/>
<path d="M103.398 21.2184C98.0342 21.2184 93.6702 16.4588 93.6702 10.6092C93.6702 4.75964 98.0342 0 103.398 0C108.761 0 113.125 4.75964 113.125 10.6092C113.125 16.4588 108.761 21.2184 103.398 21.2184ZM103.398 4.24368C100.179 4.24368 97.5612 7.09905 97.5612 10.6092C97.5612 14.1194 100.179 16.9747 103.398 16.9747C106.616 16.9747 109.234 14.1194 109.234 10.6092C109.234 7.09905 106.616 4.24368 103.398 4.24368Z" fill="#61707C"/>
<path d="M118.364 28.4283C117.887 28.4283 117.409 28.2387 117.034 27.8543L107.904 18.5226C107.12 17.7217 107.08 16.379 107.815 15.5243C108.548 14.6664 109.779 14.6239 110.564 15.4269L119.694 24.7586C120.479 25.5595 120.519 26.9022 119.783 27.757C119.401 28.2035 118.883 28.4283 118.364 28.4283Z" fill="#61707C"/>
<path d="M35.5403 179.491C35.5403 179.684 35.6419 179.84 35.7685 179.84H141.292C141.419 179.84 141.521 179.684 141.521 179.491C141.521 179.297 141.419 179.141 141.292 179.141H35.7685C35.6419 179.141 35.5403 179.297 35.5403 179.491Z" fill="#C8D4DB"/>
</svg>
