<svg width="135" height="135" viewBox="0 0 135 135" fill="none" xmlns="http://www.w3.org/2000/svg">
<rect x="-0.000976562" width="135.001" height="135" rx="67.5" fill="#F9FAFB"/>
<path d="M67.4998 45.75V44.25V45.75ZM45.7498 64.6H44.2498H45.7498ZM97.4447 92.5255L98.3302 93.7363L97.4447 92.5255ZM93.8606 83.2495L95.1518 82.486L93.8606 83.2495ZM98.1787 91.2388L96.6858 91.0929L98.1787 91.2388ZM41.1391 83.2495L39.8479 82.486L41.1391 83.2495ZM36.821 91.2388L35.3281 91.3848L36.821 91.2388ZM37.5549 92.5255L36.6695 93.7363H36.6695L37.5549 92.5255ZM59.0009 84.0625L60.0578 85.1269L61.1296 84.0625L60.0578 82.9981L59.0009 84.0625ZM51.3855 76.5L50.3285 75.4356L49.2567 76.5L50.3285 77.5644L51.3855 76.5ZM59.0009 68.9375L60.0578 70.0019L61.1296 68.9375L60.0578 67.8731L59.0009 68.9375ZM53.4624 63.4375L52.4054 62.3731L51.3336 63.4375L52.4054 64.5019L53.4624 63.4375ZM57.9809 61.0644C58.5687 60.4806 58.572 59.5309 57.9883 58.943C57.4045 58.3552 56.4548 58.3519 55.867 58.9356L57.9809 61.0644ZM76.8748 92.875C76.8748 98.0527 72.6775 102.25 67.4998 102.25V105.25C74.3344 105.25 79.8748 99.7095 79.8748 92.875H76.8748ZM67.4998 102.25C62.3222 102.25 58.1248 98.0527 58.1248 92.875H55.1248C55.1248 99.7095 60.6653 105.25 67.4998 105.25V102.25ZM90.7498 64.6C90.7498 59.1279 88.2399 53.9318 83.8618 50.1375L81.897 52.4046C85.6768 55.6804 87.7498 60.0734 87.7498 64.6H90.7498ZM83.8618 50.1375C79.4905 46.3491 73.6023 44.25 67.4998 44.25V47.25C72.9343 47.25 78.1105 49.1229 81.897 52.4046L83.8618 50.1375ZM67.4998 44.25C61.3974 44.25 55.5092 46.3491 51.1379 50.1375L53.1027 52.4046C56.8892 49.1229 62.0654 47.25 67.4998 47.25V44.25ZM51.1379 50.1375C46.7598 53.9318 44.2498 59.1279 44.2498 64.6H47.2498C47.2498 60.0734 49.3229 55.6804 53.1027 52.4046L51.1379 50.1375ZM44.2498 64.6C44.2498 72.6103 42.267 78.3949 39.8479 82.486L42.4302 84.0129C45.1302 79.4468 47.2498 73.1328 47.2498 64.6H44.2498ZM45.2358 94.375H89.7639V91.375H45.2358V94.375ZM95.1518 82.486C92.7327 78.3949 90.7498 72.6103 90.7498 64.6H87.7498C87.7498 73.1328 89.8695 79.4469 92.5694 84.0129L95.1518 82.486ZM89.7639 94.375C92.1522 94.375 93.985 94.3752 95.2778 94.3304C95.9219 94.3081 96.4755 94.2734 96.9172 94.2143C97.1381 94.1848 97.3635 94.145 97.5748 94.0865C97.7646 94.0339 98.0563 93.9366 98.3302 93.7363L96.5593 91.3147C96.7137 91.2018 96.8258 91.181 96.7741 91.1953C96.7438 91.2037 96.6658 91.2212 96.5193 91.2408C96.2263 91.28 95.7901 91.3109 95.1739 91.3322C93.9462 91.3748 92.1776 91.375 89.7639 91.375V94.375ZM92.5694 84.0129C94.0335 86.489 95.1135 88.3157 95.8222 89.5986C96.178 90.2425 96.4209 90.715 96.5683 91.0459C96.6423 91.2123 96.6782 91.3118 96.6927 91.36C96.7179 91.4439 96.6638 91.318 96.6858 91.0929L99.6716 91.3848C99.708 91.0124 99.6209 90.6804 99.566 90.4974C99.5003 90.2787 99.4089 90.0503 99.3088 89.8254C99.1077 89.3739 98.8145 88.8109 98.4481 88.1479C97.7127 86.8168 96.6048 84.9434 95.1518 82.486L92.5694 84.0129ZM98.3302 93.7363C98.637 93.5119 99.0233 93.2045 99.295 92.7283C99.5666 92.252 99.6346 91.7631 99.6716 91.3848L96.6858 91.0929C96.6722 91.2322 96.6605 91.2933 96.6549 91.3163C96.6519 91.329 96.6593 91.294 96.6891 91.2418C96.7189 91.1896 96.7453 91.1653 96.7359 91.1744C96.7189 91.1909 96.6723 91.2321 96.5593 91.3147L98.3302 93.7363ZM39.8479 82.486C38.3948 84.9434 37.2869 86.8167 36.5515 88.1479C36.1852 88.8109 35.892 89.3739 35.6909 89.8254C35.5908 90.0503 35.4993 90.2787 35.4337 90.4974C35.3787 90.6804 35.2917 91.0124 35.3281 91.3848L38.3139 91.0929C38.3359 91.318 38.2818 91.4439 38.307 91.36C38.3215 91.3118 38.3573 91.2123 38.4314 91.0459C38.5788 90.715 38.8217 90.2425 39.1775 89.5986C39.8862 88.3157 40.9662 86.4889 42.4302 84.0129L39.8479 82.486ZM45.2358 91.375C42.8221 91.375 41.0535 91.3748 39.8258 91.3322C39.2096 91.3109 38.7733 91.28 38.4803 91.2408C38.3339 91.2212 38.2558 91.2037 38.2256 91.1953C38.1739 91.181 38.286 91.2018 38.4404 91.3147L36.6695 93.7363C36.9434 93.9366 37.235 94.0339 37.4249 94.0865C37.6362 94.145 37.8616 94.1848 38.0825 94.2143C38.5241 94.2734 39.0778 94.3081 39.7219 94.3304C41.0146 94.3752 42.8475 94.375 45.2358 94.375V91.375ZM35.3281 91.3848C35.3651 91.7631 35.4331 92.252 35.7047 92.7283C35.9764 93.2045 36.3627 93.5119 36.6695 93.7363L38.4404 91.3147C38.3274 91.2321 38.2808 91.1909 38.2638 91.1744C38.2544 91.1653 38.2808 91.1896 38.3106 91.2418C38.3404 91.294 38.3478 91.329 38.3448 91.3163C38.3392 91.2933 38.3275 91.2322 38.3139 91.0929L35.3281 91.3848ZM75.0623 40.3125C75.0623 42.3568 74.2532 44.2091 72.9344 45.5715L75.09 47.658C76.9285 45.7586 78.0623 43.1664 78.0623 40.3125H75.0623ZM67.4998 32.75C71.6765 32.75 75.0623 36.1358 75.0623 40.3125H78.0623C78.0623 34.479 73.3333 29.75 67.4998 29.75V32.75ZM59.9373 40.3125C59.9373 36.1358 63.3232 32.75 67.4998 32.75V29.75C61.6663 29.75 56.9373 34.479 56.9373 40.3125H59.9373ZM62.0653 45.5715C60.7465 44.2091 59.9373 42.3568 59.9373 40.3125H56.9373C56.9373 43.1664 58.0712 45.7586 59.9097 47.658L62.0653 45.5715ZM51.0578 94.0644L60.0578 85.1269L57.9439 82.9981L48.9439 91.9356L51.0578 94.0644ZM60.0578 82.9981L52.4424 75.4356L50.3285 77.5644L57.9439 85.1269L60.0578 82.9981ZM52.4424 77.5644L60.0578 70.0019L57.9439 67.8731L50.3285 75.4356L52.4424 77.5644ZM60.0578 67.8731L54.5194 62.3731L52.4054 64.5019L57.9439 70.0019L60.0578 67.8731ZM54.5194 64.5019L57.9809 61.0644L55.867 58.9356L52.4054 62.3731L54.5194 64.5019Z" fill="#97A2B0"/>
</svg>
