<svg width="135" height="135" viewBox="0 0 135 135" fill="none" xmlns="http://www.w3.org/2000/svg">
<rect width="135" height="135" rx="67.5" fill="#F9FAFB"/>
<path d="M76.1676 89.3045C77.7221 95.106 74.2793 101.069 68.4778 102.624C62.6764 104.178 56.7132 100.735 55.1587 94.9338M63.4821 44.8115C64.5848 42.8275 64.9481 40.4296 64.3142 38.0639C63.0188 33.2294 58.0495 30.3604 53.2149 31.6558C48.3804 32.9512 45.5114 37.9205 46.8068 42.755C47.4407 45.1207 48.9542 47.0157 50.9012 48.1825M82.8554 58.2401C81.5615 53.4111 78.1072 49.373 73.2523 47.0141C68.3974 44.6552 62.5397 44.1687 56.9678 45.6617C51.3959 47.1547 46.5662 50.5048 43.5412 54.9751C40.5162 59.4454 39.5437 64.6697 40.8377 69.4987C42.9785 77.4884 42.5628 83.8625 41.2108 88.7061C39.67 94.2264 38.8995 96.9866 39.1077 97.5408C39.3458 98.1749 39.5181 98.349 40.1497 98.5937C40.7017 98.8076 43.0209 98.1862 47.6592 96.9433L90.6701 85.4186C95.3084 84.1757 97.6276 83.5543 97.9987 83.0931C98.4234 82.5653 98.4855 82.3285 98.3747 81.6603C98.2778 81.0762 96.2305 79.071 92.1359 75.0607C88.5433 71.5421 84.9963 66.2298 82.8554 58.2401Z" stroke="#97A2B0" stroke-width="3" stroke-linecap="round" stroke-linejoin="round"/>
<circle cx="81.5" cy="46.5" r="10.5" fill="white" stroke="#97A2B0" stroke-width="3" stroke-linecap="round" stroke-linejoin="round"/>
<path d="M81.6683 52.1939C80.8497 52.1939 80.147 51.9867 79.5604 51.5724C78.977 51.1548 78.5279 50.5533 78.2131 49.7678C77.9015 48.9789 77.7457 48.0294 77.7457 46.919C77.7491 45.8087 77.9065 44.8641 78.218 44.0852C78.5329 43.303 78.982 42.7064 79.5653 42.2955C80.152 41.8845 80.853 41.679 81.6683 41.679C82.4837 41.679 83.1847 41.8845 83.7713 42.2955C84.358 42.7064 84.8071 43.303 85.1186 44.0852C85.4335 44.8674 85.5909 45.812 85.5909 46.919C85.5909 48.0327 85.4335 48.9839 85.1186 49.7727C84.8071 50.5582 84.358 51.1581 83.7713 51.5724C83.188 51.9867 82.487 52.1939 81.6683 52.1939ZM81.6683 50.6378C82.3047 50.6378 82.8068 50.3246 83.1747 49.6982C83.5459 49.0684 83.7315 48.142 83.7315 46.919C83.7315 46.1103 83.647 45.4309 83.478 44.8807C83.3089 44.3305 83.0703 43.9162 82.7621 43.6378C82.4538 43.3561 82.0893 43.2152 81.6683 43.2152C81.0353 43.2152 80.5348 43.5301 80.1669 44.1598C79.799 44.7862 79.6134 45.706 79.6101 46.919C79.6068 47.7311 79.688 48.4138 79.8537 48.9673C80.0227 49.5208 80.2614 49.9384 80.5696 50.2202C80.8778 50.4986 81.2441 50.6378 81.6683 50.6378Z" fill="#97A2B0"/>
</svg>
