<svg width="8" height="8" viewBox="0 0 8 8" fill="none" xmlns="http://www.w3.org/2000/svg">
  <path fill-rule="evenodd" clip-rule="evenodd" d="M7.41533 7.06251L4.35333 4.00001L7.41233 0.940759C7.47987 0.878599 7.50791 0.784428 7.48538 0.695449C7.46285 0.606469 7.39337 0.53699 7.30439 0.51446C7.21541 0.491931 7.12124 0.519973 7.05908 0.587509L3.99983 3.64651L0.935453 0.582009C0.837359 0.487266 0.681432 0.488621 0.584999 0.585055C0.488565 0.681488 0.48721 0.837414 0.581953 0.935509L3.64633 4.00001L0.560703 7.08563C0.495714 7.1484 0.46965 7.24135 0.492529 7.32876C0.515408 7.41617 0.583669 7.48443 0.671076 7.50731C0.758484 7.53019 0.851435 7.50412 0.914203 7.43913L3.99983 4.35351L7.06233 7.41551C7.16122 7.50391 7.31193 7.49969 7.40572 7.4059C7.49951 7.31211 7.50373 7.1614 7.41533 7.06251Z" fill="#3D464E"/>
</svg>
