<svg width="20" height="18" viewBox="0 0 20 18" fill="none" xmlns="http://www.w3.org/2000/svg">
<path fill-rule="evenodd" clip-rule="evenodd" d="M18.6784 0.25H1.21875C0.873572 0.25 0.59375 0.529822 0.59375 0.875V17.125C0.59375 17.4702 0.873572 17.75 1.21875 17.75H18.6784C19.0236 17.75 19.3034 17.4702 19.3034 17.125V0.875C19.3034 0.529822 19.0236 0.25 18.6784 0.25ZM17.3894 2.4375C17.3894 2.66411 17.2057 2.84781 16.9791 2.84781C16.7525 2.84781 16.5687 2.66411 16.5687 2.4375C16.5687 2.21089 16.7525 2.02719 16.9791 2.02719C17.2057 2.02719 17.3894 2.21089 17.3894 2.4375ZM15.3384 2.84781C15.565 2.84781 15.7487 2.66411 15.7487 2.4375C15.7487 2.21089 15.565 2.02719 15.3384 2.02719C15.1118 2.02719 14.9281 2.21089 14.9281 2.4375C14.9281 2.66411 15.1118 2.84781 15.3384 2.84781ZM18.0534 1.5V3.375H1.84375V1.5H18.0534ZM6.07312 14.8263C6.07312 14.5922 6.26284 14.4025 6.49687 14.4025C6.73083 14.4027 6.92045 14.5923 6.92063 14.8263C6.92063 15.0603 6.73091 15.25 6.49687 15.25C6.26284 15.25 6.07312 15.0603 6.07312 14.8263ZM1.84375 16.5V4.625H18.0534V16.5H1.84375ZM4.37781 14.8263C4.37781 14.5922 4.56753 14.4025 4.80156 14.4025C5.03552 14.4027 5.22514 14.5923 5.22531 14.8263C5.22531 15.0603 5.03559 15.25 4.80156 15.25C4.56753 15.25 4.37781 15.0603 4.37781 14.8263ZM3.10625 14.4025C2.87238 14.4032 2.68329 14.5932 2.68375 14.8271C2.68421 15.0609 2.87405 15.2502 3.10792 15.25C3.34178 15.2498 3.53125 15.0601 3.53125 14.8263C3.53117 14.7137 3.48632 14.6058 3.4066 14.5263C3.32688 14.4468 3.21883 14.4023 3.10625 14.4025ZM15.0225 5.72312C15.4043 5.72917 15.7682 5.88587 16.035 6.15906L16.9541 7.0775C17.4787 7.54088 17.5344 8.33958 17.0791 8.87125L11.2809 14.6694C11.1837 14.7667 11.057 14.8291 10.9206 14.8471L8.66996 15.1436C8.26245 15.1973 7.91496 14.8497 7.96869 14.4422L8.2654 12.1918C8.28338 12.0555 8.34584 11.9288 8.4431 11.8316L14.2413 6.03344C14.4497 5.8297 14.7311 5.71794 15.0225 5.72312ZM10.4417 13.6495C10.5099 13.6405 10.5732 13.6093 10.6219 13.5606L14.2055 9.9785C14.3276 9.85646 14.3276 9.65854 14.2055 9.53648L13.5772 8.90836C13.4551 8.78637 13.2573 8.78637 13.1353 8.90835L9.5519 12.4903C9.50325 12.539 9.472 12.6023 9.46301 12.6705L9.36762 13.394C9.34076 13.5977 9.51447 13.7715 9.71821 13.7447L10.4417 13.6495ZM14.8406 7.20248C14.9626 7.08061 15.1604 7.08067 15.2823 7.20262L15.9108 7.83091C16.0329 7.95294 16.0329 8.15083 15.9108 8.27288L15.3895 8.79422C15.3422 8.84151 15.2672 8.85916 15.2206 8.81125L14.3025 7.89282C14.2538 7.84668 14.271 7.77124 14.3184 7.72384L14.8406 7.20248Z"  fill="#61707c" />
</svg>