<svg width="32" height="32" viewBox="0 0 32 32" fill="none" xmlns="http://www.w3.org/2000/svg">
<path fill-rule="evenodd" clip-rule="evenodd" d="M29 3H25.5V2C25.5 1.44772 25.0523 1 24.5 1C23.9477 1 23.5 1.44772 23.5 2V3H9.5V2C9.5 1.44772 9.05229 1 8.5 1C7.94772 1 7.5 1.44772 7.5 2V3H3C1.34315 3 0 4.34315 0 6V28C0 29.6569 1.34315 31 3 31H29C30.6569 31 32 29.6569 32 28V6C32 4.34315 30.6569 3 29 3ZM3 5H7.5V6C7.5 6.55228 7.94772 7 8.5 7C9.05229 7 9.5 6.55228 9.5 6V5H23.5V6C23.5 6.55228 23.9477 7 24.5 7C25.0523 7 25.5 6.55228 25.5 6V5H29C29.5523 5 30 5.44772 30 6V9H2V6C2 5.44772 2.44772 5 3 5ZM3 29H29C29.5523 29 30 28.5523 30 28V11H2V28C2 28.5523 2.44772 29 3 29Z" fill="#616F80"/>
</svg>
