<svg width="16" height="16" viewBox="0 0 16 16" fill="none" xmlns="http://www.w3.org/2000/svg">
  <path fill-rule="evenodd" clip-rule="evenodd" d="M14.0001 9.50012C13.7737 9.50012 13.5001 9.7091 13.5001 9.93556V12.5001C13.5001 12.7763 13.2763 13.0001 13.0001 13.0001H3.00012C2.72398 13.0001 2.50012 12.7763 2.50012 12.5001V2.50012C2.50012 2.22398 2.72398 2.00012 3.00012 2.00012H5.72093C5.94739 2.00012 6.13119 1.77658 6.13119 1.55012C6.13119 1.32366 5.94739 1.07812 5.72093 1.07812H1.98863C1.76216 1.07812 1.57837 1.26192 1.57837 1.48838V13.6679C1.57837 13.8943 1.76216 14.0781 1.98863 14.0781H14.1681C14.3946 14.0781 14.5001 13.9766 14.5001 13.7501V9.93556C14.5001 9.70889 14.2266 9.50012 14.0001 9.50012ZM14.9221 0.578125H10.1116C9.83561 0.578125 9.61161 0.802125 9.61161 1.07812C9.61161 1.35413 9.83561 1.57812 10.1116 1.57812H13.6799L8.00636 7.25187C7.81111 7.44712 7.81111 7.76363 8.00636 7.95888C8.10411 8.05663 8.23186 8.10537 8.35986 8.10537C8.48786 8.10537 8.61561 8.05663 8.71336 7.95888L14.4221 2.25013V5.88863C14.4221 6.16463 14.6461 6.38863 14.9221 6.38863C15.1981 6.38863 15.4221 6.16463 15.4221 5.88863V1.07812C15.4221 0.802125 15.1981 0.578125 14.9221 0.578125Z" fill="#61707C"/>
</svg>
