<svg width="16" height="16" viewBox="0 0 16 16" fill="none" xmlns="http://www.w3.org/2000/svg">
<path d="M5.99998 12.3333H9.99998M3.89161 1.33325H12.1084C12.4167 1.33325 12.6666 1.58321 12.6666 1.89155C12.6666 3.66837 11.9608 5.37243 10.7044 6.62883L9.89161 7.44162C9.81089 7.52234 9.77054 7.5627 9.74164 7.60145C9.56539 7.83786 9.56539 8.16198 9.74164 8.39839C9.77054 8.43714 9.81089 8.4775 9.89161 8.55821L10.7044 9.371C11.9608 10.6274 12.6666 12.3315 12.6666 14.1083C12.6666 14.4166 12.4167 14.6666 12.1084 14.6666H3.89161C3.58327 14.6666 3.33331 14.4166 3.33331 14.1083C3.33331 12.3315 4.03915 10.6274 5.29556 9.371L6.10835 8.55821C6.18907 8.4775 6.22942 8.43714 6.25832 8.39839C6.43457 8.16198 6.43457 7.83786 6.25832 7.60145C6.22942 7.5627 6.18907 7.52234 6.10835 7.44162L5.29556 6.62883C4.03915 5.37243 3.33331 3.66837 3.33331 1.89155C3.33331 1.58321 3.58327 1.33325 3.89161 1.33325Z" stroke="white" stroke-width="1.5" stroke-linecap="round" stroke-linejoin="round"/>
</svg>
