<svg width="16" height="16" viewBox="0 0 16 16" fill="none" xmlns="http://www.w3.org/2000/svg">
<path d="M5.99998 12.3335H9.99998M3.89161 1.3335H12.1084C12.4167 1.3335 12.6666 1.58345 12.6666 1.89179C12.6666 3.66862 11.9608 5.37267 10.7044 6.62908L9.89161 7.44187C9.81089 7.52258 9.77054 7.56294 9.74164 7.60169C9.56539 7.83811 9.56539 8.16222 9.74164 8.39863C9.77054 8.43739 9.81089 8.47774 9.89161 8.55846L10.7044 9.37125C11.9608 10.6277 12.6666 12.3317 12.6666 14.1085C12.6666 14.4169 12.4167 14.6668 12.1084 14.6668H3.89161C3.58327 14.6668 3.33331 14.4169 3.33331 14.1085C3.33331 12.3317 4.03915 10.6277 5.29556 9.37125L6.10835 8.55846C6.18907 8.47774 6.22942 8.43739 6.25832 8.39863C6.43457 8.16222 6.43457 7.83811 6.25832 7.60169C6.22942 7.56294 6.18907 7.52258 6.10835 7.44187L5.29556 6.62908C4.03915 5.37267 3.33331 3.66862 3.33331 1.89179C3.33331 1.58345 3.58327 1.3335 3.89161 1.3335Z" stroke="#3E4651" stroke-width="1.5" stroke-linecap="round" stroke-linejoin="round"/>
</svg>
