<svg width="12" height="12" viewBox="0 0 12 12" fill="none" xmlns="http://www.w3.org/2000/svg">
  <path fill-rule="evenodd" clip-rule="evenodd" d="M3.95998 1.91661L0.141172 5.73523C0.123547 5.75267 0.107984 5.77198 0.0941094 5.7928C0.0881094 5.80161 0.0841719 5.81136 0.0789219 5.82055C0.0721719 5.83273 0.0648594 5.84436 0.0596094 5.8573C0.0545469 5.86948 0.0517344 5.88223 0.0479844 5.8948C0.0447969 5.90567 0.0406719 5.91598 0.0384219 5.92723C0.0288594 5.97561 0.0288594 6.02567 0.0384219 6.07405C0.0406719 6.0853 0.0447969 6.09561 0.0479844 6.10648C0.0517344 6.11905 0.0545469 6.1318 0.0596094 6.14398C0.0648594 6.15692 0.0721719 6.16855 0.0789219 6.18073C0.0839844 6.18992 0.0881094 6.19967 0.0941094 6.20848C0.107984 6.22911 0.123547 6.24842 0.141172 6.26605L3.95998 10.0847C4.10642 10.2311 4.3438 10.2311 4.49023 10.0847C4.56355 10.0114 4.60011 9.91555 4.60011 9.81955C4.60011 9.72355 4.56355 9.62773 4.49023 9.55442L1.31136 6.37555H11.5937C11.8007 6.37555 11.9687 6.20755 11.9687 6.00055C11.9687 5.79355 11.8007 5.62555 11.5937 5.62555H1.31136L4.49023 2.44686C4.56355 2.37355 4.60011 2.27773 4.60011 2.18173C4.60011 2.08573 4.56355 1.98992 4.49023 1.91661C4.3438 1.76998 4.10642 1.76998 3.95998 1.91661Z" fill="#0F5CA3"/>
</svg>
