<svg width="16" height="16" viewBox="0 0 16 16" fill="none" xmlns="http://www.w3.org/2000/svg">
<mask id="mask0_1557_7416" style="mask-type:alpha" maskUnits="userSpaceOnUse" x="0" y="2" width="16" height="12">
<path fill-rule="evenodd" clip-rule="evenodd" d="M0 3C0 2.58579 0.335786 2.25 0.75 2.25H15.25C15.6642 2.25 16 2.58579 16 3C16 3.41421 15.6642 3.75 15.25 3.75H0.75C0.335786 3.75 0 3.41421 0 3ZM0 8C0 7.58579 0.335786 7.25 0.75 7.25H15.25C15.6642 7.25 16 7.58579 16 8C16 8.41421 15.6642 8.75 15.25 8.75H0.75C0.335786 8.75 0 8.41421 0 8ZM0.75 12.25C0.335786 12.25 0 12.5858 0 13C0 13.4142 0.335786 13.75 0.75 13.75H15.25C15.6642 13.75 16 13.4142 16 13C16 12.5858 15.6642 12.25 15.25 12.25H0.75Z" fill="#0F5CA3"/>
</mask>
<g mask="url(#mask0_1557_7416)">
<rect width="16" height="16" fill="#0F5CA3"/>
</g>
</svg>
