<svg width="24" height="28" viewBox="0 0 24 28" fill="none" xmlns="http://www.w3.org/2000/svg">
<path d="M9.35416 25C10.0593 25.6224 10.9855 26 12 26C13.0144 26 13.9407 25.6224 14.6458 25M18 12C18 10.4087 17.3678 8.88258 16.2426 7.75736C15.1174 6.63214 13.5913 6 12 6C10.4087 6 8.88257 6.63214 7.75735 7.75736C6.63213 8.88258 5.99999 10.4087 5.99999 12C5.99999 15.0902 5.22046 17.206 4.34965 18.6054C3.61512 19.7859 3.24785 20.3761 3.26131 20.5408C3.27622 20.7231 3.31485 20.7926 3.46176 20.9016C3.59445 21 4.19258 21 5.38884 21H18.6111C19.8074 21 20.4055 21 20.5382 20.9016C20.6851 20.7926 20.7238 20.7231 20.7387 20.5408C20.7521 20.3761 20.3849 19.7859 19.6503 18.6054C18.7795 17.206 18 15.0902 18 12Z" stroke="white" stroke-width="2" stroke-linecap="round" stroke-linejoin="round"/>
<circle cx="17" cy="6" r="5" fill="#DD276A" stroke="white" stroke-width="2"/>
</svg>
