<svg width="20" height="20" viewBox="0 0 20 20" fill="none" xmlns="http://www.w3.org/2000/svg">
  <path fill-rule="evenodd" clip-rule="evenodd" d="M1.17324 8.93376L4.4717 6.18514L8.16954 9.26668L17.1797 1.54361C17.4379 1.32238 17.4677 0.93376 17.2465 0.675914C17.0252 0.41776 16.6363 0.387914 16.3788 0.609145L8.15816 7.6553L4.4717 4.58299L0.385237 7.98822C0.124314 8.20576 0.0892367 8.59376 0.306775 8.85499C0.524006 9.11561 0.911698 9.1513 1.17324 8.93376ZM7.50622 12.4511V12.4641L7.56652 18.2976H4.07945L4.01914 12.4511H7.50622ZM12.4204 18.2976H15.9078V9.9896H12.4204V18.2976ZM19.2204 18.3074H17.1385V9.9896C17.1385 9.31267 16.5844 8.75883 15.9078 8.75883H12.4204C11.7434 8.75883 11.1896 9.31267 11.1896 9.9896V18.3074H8.79729L8.73698 12.4511C8.73698 11.7742 8.18314 11.2204 7.50622 11.2204H4.01914C3.34222 11.2204 2.78837 11.7742 2.78837 12.4511L2.84868 18.3074H0.779447C0.439447 18.3074 0.164062 18.5831 0.164062 18.9228C0.164062 19.2628 0.439447 19.5382 0.779447 19.5382H19.2204C19.5604 19.5382 19.8358 19.2628 19.8358 18.9228C19.8358 18.5831 19.5604 18.3074 19.2204 18.3074Z" fill="#61707C"/>
</svg>