<svg width="24" height="13" viewBox="0 0 24 13" fill="none" xmlns="http://www.w3.org/2000/svg">
<path fill-rule="evenodd" clip-rule="evenodd" d="M17.9703 11.8057C17.9703 12.4637 18.4668 12.9057 19.0198 12.9057C19.6074 12.9057 20.0724 12.4186 20.0724 11.8283V11.0219C20.0724 9.68005 19.0135 8.59624 17.7095 8.59624H14.1463C14.0174 8.59624 13.9515 8.52206 13.9169 8.46077C13.8823 8.39948 13.854 8.30272 13.92 8.18982L17.3921 2.28696C17.4393 2.20632 17.5241 2.15793 17.6152 2.15793H19.5351C19.6828 2.15793 19.799 2.28051 19.799 2.42888V7.24794C19.799 8.58657 20.858 9.6736 22.162 9.6736H22.9507C23.5225 9.6736 24.0001 9.19621 24.0001 8.59624C24.0001 7.99306 23.5162 7.51889 22.9287 7.51889H22.162C22.0143 7.51889 21.898 7.39632 21.898 7.24794V2.42566C21.898 1.0838 20.8391 0 19.5351 0H17.6152C16.7951 0 16.019 0.44836 15.5948 1.1709L12.1227 7.07053C11.6765 7.83178 11.664 8.74785 12.0913 9.52199C12.5155 10.2897 13.3167 10.751 14.1746 10.751H17.7064C17.854 10.751 17.9703 10.8735 17.9703 11.0219V11.8057ZM7.4501 12.5899C7.65435 12.7995 7.92457 12.906 8.19166 12.906C8.45874 12.906 8.72897 12.8028 8.93321 12.5931C9.34169 12.1738 9.34169 11.4899 8.93321 11.0706L7.21758 9.30942C6.77139 8.85139 6.18066 8.59979 5.54909 8.59979H2.36292C2.21524 8.59979 2.09897 8.47722 2.09897 8.32884V2.4292C2.09897 2.2776 2.21838 2.15825 2.36292 2.15825H8.10996C8.25764 2.15825 8.3739 2.28082 8.3739 2.4292V8.59656C8.3739 9.19008 8.84523 9.67392 9.42339 9.67392C10.0016 9.67392 10.4729 9.19008 10.4729 8.59656V2.4292C10.4729 1.09058 9.41082 0.00354512 8.10996 0.00354512H2.36292C1.05891 0.00354512 0 1.0938 0 2.4292V8.32884C0 9.66747 1.06206 10.7545 2.36292 10.7545H5.54909C5.61821 10.7545 5.6842 10.7803 5.73447 10.8319L7.4501 12.5899Z" fill="white"/>
</svg>
