<svg width="61" height="39" viewBox="0 0 61 39" fill="none" xmlns="http://www.w3.org/2000/svg">
  <path fill-rule="evenodd" clip-rule="evenodd" d="M45.0564 34.0051C45.0564 35.6077 46.2975 36.6839 47.6801 36.6839C49.149 36.6839 50.3116 35.4977 50.3116 34.0601V32.0963C50.3116 28.8284 47.6644 26.189 44.4043 26.189H35.4963C35.1742 26.189 35.0092 26.0083 34.9228 25.859C34.8364 25.7098 34.7657 25.4741 34.9307 25.1992L43.6109 10.8237C43.7288 10.6273 43.9409 10.5095 44.1687 10.5095H48.9684C49.3376 10.5095 49.6282 10.808 49.6282 11.1693V22.9054C49.6282 26.1654 52.2755 28.8127 55.5355 28.8127H57.5073C58.9369 28.8127 60.131 27.6501 60.131 26.189C60.131 24.72 58.9212 23.5652 57.4523 23.5652H55.5355C55.1663 23.5652 54.8757 23.2667 54.8757 22.9054V11.1615C54.8757 7.89359 52.2284 5.25415 48.9684 5.25415H44.1687C42.1184 5.25415 40.1781 6.34606 39.1176 8.10568L30.4373 22.4733C29.3219 24.3272 29.2904 26.5582 30.3588 28.4435C31.4193 30.3131 33.4224 31.4364 35.567 31.4364H44.3965C44.7657 31.4364 45.0564 31.7349 45.0564 32.0963V34.0051ZM18.7563 35.914C19.2669 36.4246 19.9425 36.6838 20.6102 36.6838C21.2779 36.6838 21.9534 36.4325 22.4641 35.9219C23.4853 34.9007 23.4853 33.2353 22.4641 32.2141L18.175 27.925C17.0595 26.8095 15.5827 26.1968 14.0037 26.1968H6.03829C5.66908 26.1968 5.37843 25.8983 5.37843 25.5369V11.1693C5.37843 10.8001 5.67694 10.5095 6.03829 10.5095H20.4059C20.7751 10.5095 21.0658 10.808 21.0658 11.1693V26.1889C21.0658 27.6344 22.2441 28.8127 23.6895 28.8127C25.1349 28.8127 26.3132 27.6344 26.3132 26.1889V11.1693C26.3132 7.9093 23.6581 5.26201 20.4059 5.26201H6.03829C2.77827 5.26201 0.130981 7.91715 0.130981 11.1693V25.5369C0.130981 28.797 2.78613 31.4443 6.03829 31.4443H14.0037C14.1765 31.4443 14.3415 31.5071 14.4672 31.6328L18.7563 35.914Z" fill="white"/>
</svg>
