<svg width="95" height="95" viewBox="0 0 95 95" fill="none" xmlns="http://www.w3.org/2000/svg">
<rect width="95" height="95" rx="47.5" fill="#F0F7FF"/>
<path d="M47.4997 53.3748L41.6247 47.4998M47.4997 53.3748C50.2352 52.3345 52.8594 51.0223 55.333 49.4582M47.4997 53.3748V63.1665C47.4997 63.1665 53.4334 62.0894 55.333 59.2498C57.448 56.0773 55.333 49.4582 55.333 49.4582M41.6247 47.4998C42.6668 44.7962 43.979 42.2046 45.5413 39.7644C47.8232 36.116 51.0004 33.1121 54.771 31.0383C58.5415 28.9645 62.7799 27.8898 67.083 27.9165C67.083 33.2432 65.5555 42.604 55.333 49.4582M41.6247 47.4998H31.833C31.833 47.4998 32.9101 41.5661 35.7497 39.6665C38.9222 37.5515 45.5413 39.6665 45.5413 39.6665M32.8122 56.3123C29.8747 58.7798 28.8955 66.104 28.8955 66.104C28.8955 66.104 36.2197 65.1248 38.6872 62.1873C40.0776 60.5423 40.058 58.0161 38.5109 56.4886C37.7497 55.7621 36.747 55.3423 35.6953 55.3097C34.6435 55.2772 33.6168 55.6342 32.8122 56.3123Z" stroke="url(#paint0_linear_123_16256)" stroke-width="2" stroke-linecap="round" stroke-linejoin="round"/>
<defs>
<linearGradient id="paint0_linear_123_16256" x1="30.8049" y1="18.8464" x2="30.8049" y2="83.2886" gradientUnits="userSpaceOnUse">
<stop offset="0.0572917" stop-color="#173DA6"/>
<stop offset="0.619032" stop-color="#29CCF3"/>
<stop offset="1" stop-color="#60AF86"/>
</linearGradient>
</defs>
</svg>
