<!-- Generated by IcoMoon.io -->
<svg version="1.1" xmlns="http://www.w3.org/2000/svg" width="1024" height="1024" viewBox="0 0 1024 1024">
<title></title>
<g id="icomoon-ignore">
</g>
<path fill="#61707c" d="M807.632 991.472c-5.248 0-10.512-1.296-15.312-3.904l-280.32-152.832-280.32 152.832c-10.896 5.952-24.272 5.024-34.256-2.304-10.016-7.344-14.864-19.824-12.448-32l60.144-303.744-233.44-219.888c-8.96-8.464-12.256-21.312-8.48-33.024s13.92-20.256 26.128-21.936l321.952-44.144 131.808-279.68c5.296-11.2 16.544-18.32 28.912-18.32v0c12.368 0 23.632 7.136 28.928 18.32l132.688 280.32 321.056 43.504c12.208 1.664 22.352 10.208 26.128 21.936 3.76 11.728 0.464 24.576-8.48 33.024l-233.776 220.928 60.48 302.704c2.4 12.176-2.432 24.656-12.448 32-5.6 4.112-12.256 6.208-18.944 6.208zM104.192 428.992l185.248 175.040c15.792 14.944 22.688 36.592 18.464 57.904l-46.88 236.736 228.272-124.448c14.256-7.76 31.248-7.744 45.408 0l228.272 124.448-46.896-236.736c-4.24-21.328 2.688-42.992 18.496-57.92l185.216-175.040-255.744-35.056c-21.12-2.896-39.184-16.128-48.304-35.408l-103.744-219.2-103.776 219.232c-9.088 19.248-27.136 32.48-48.272 35.376l-255.76 35.072z"></path>
</svg>
