<svg width="80" height="80" viewBox="0 0 80 80" fill="none" xmlns="http://www.w3.org/2000/svg">
<rect width="80" height="80" rx="40" fill="#00A838"/>
<path d="M42.2436 45.6893L52.0008 59.9998M37.7581 45.6893L28.0008 59.9998M44.0008 42.4C44.0008 44.6091 42.21 46.4 40.0008 46.4C37.7917 46.4 36.0008 44.6091 36.0008 42.4C36.0008 40.1908 37.7917 38.4 40.0008 38.4C42.21 38.4 44.0008 40.1908 44.0008 42.4ZM50.2978 25.0645L26.7292 31.3797C26.1883 31.5246 25.9178 31.5971 25.7394 31.7578C25.5824 31.8991 25.4743 32.0864 25.4304 32.293C25.3804 32.5278 25.4529 32.7983 25.5979 33.3393L27.3578 39.9076C27.5028 40.4485 27.5753 40.719 27.7359 40.8974C27.8772 41.0544 28.0646 41.1625 28.2711 41.2065C28.506 41.2564 28.7765 41.1839 29.3174 41.0389L52.886 34.7238L50.2978 25.0645ZM59.5856 34.9992C57.4217 35.579 56.3398 35.8689 55.4004 35.6692C54.5742 35.4936 53.8247 35.0609 53.2595 34.4331C52.6169 33.7195 52.327 32.6376 51.7472 30.4737L51.4366 29.3146C50.8568 27.1507 50.5669 26.0688 50.7666 25.1294C50.9422 24.3032 51.3749 23.5537 52.0026 22.9885C52.7163 22.3459 53.7982 22.056 55.9621 21.4762C56.5031 21.3312 56.7736 21.2588 57.0084 21.3087C57.215 21.3526 57.4023 21.4608 57.5436 21.6177C57.7043 21.7961 57.7768 22.0666 57.9217 22.6076L60.717 33.0396C60.8619 33.5805 60.9344 33.851 60.8845 34.0859C60.8406 34.2924 60.7324 34.4798 60.5755 34.6211C60.397 34.7817 60.1266 34.8542 59.5856 34.9992ZM23.0042 40.66L25.7088 39.9353C26.2498 39.7904 26.5203 39.7179 26.6987 39.5572C26.8556 39.4159 26.9638 39.2286 27.0077 39.022C27.0576 38.7872 26.9852 38.5167 26.8402 37.9757L26.1155 35.2711C25.9706 34.7302 25.8981 34.4597 25.7374 34.2813C25.5961 34.1243 25.4088 34.0161 25.2022 33.9722C24.9674 33.9223 24.6969 33.9948 24.1559 34.1398L21.4513 34.8644C20.9104 35.0094 20.6399 35.0819 20.4615 35.2425C20.3045 35.3838 20.1963 35.5712 20.1524 35.7778C20.1025 36.0126 20.175 36.2831 20.32 36.824L21.0446 39.5286C21.1896 40.0696 21.2621 40.3401 21.4227 40.5185C21.564 40.6754 21.7514 40.7836 21.958 40.8275C22.1928 40.8774 22.4633 40.805 23.0042 40.66Z" stroke="white" stroke-width="1.5" stroke-linecap="round" stroke-linejoin="round"/>
</svg>
