<svg width="16" height="16" viewBox="0 0 32 32" fill="none" xmlns="http://www.w3.org/2000/svg">
  <path
    fillRule="evenodd"
    clipRule="evenodd"
    d="M6.8 32C5.03677 31.9988 3.34619 31.2974 2.1 30.05L1.95 29.9C-0.643977 27.3035 -0.643977 23.0965 1.95 20.5L10.6 11.85C10.9981 11.5514 11.5552 11.591 11.9071 11.9429C12.259 12.2948 12.2986 12.8519 12 13.25L3.35 21.9C1.55139 23.7129 1.55139 26.6371 3.35 28.45L3.55 28.65C4.40841 29.5177 5.57944 30.0041 6.8 30C8.03253 29.9904 9.21413 29.507 10.1 28.65L12.3 26.45C12.5348 26.137 12.9305 25.9896 13.3129 26.0729C13.6952 26.1562 13.9938 26.4548 14.0771 26.8371C14.1604 27.2195 14.013 27.6152 13.7 27.85L11.5 30.05C10.2538 31.2974 8.56323 31.9988 6.8 32ZM20 21.15C19.7189 21.1599 19.4467 21.051 19.25 20.85C18.8935 20.4514 18.8935 19.8486 19.25 19.45L28.65 10.1C30.4486 8.28708 30.4486 5.36291 28.65 3.55L28.45 3.35C26.6371 1.55139 23.7129 1.55139 21.9 3.35L19 6.3C18.6014 6.6565 17.9986 6.6565 17.6 6.3C17.2127 5.89425 17.2127 5.25574 17.6 4.85L20.5 1.95C23.0965 -0.643977 27.3035 -0.643977 29.9 1.95L30.05 2.1C32.644 4.69647 32.644 8.90353 30.05 11.5L20.7 20.85C20.5154 21.0384 20.2638 21.1462 20 21.15ZM16.7 12.05C16.4362 12.0462 16.1846 11.9384 16 11.75L11.75 7.5C11.437 7.26523 11.2896 6.86946 11.3729 6.48714C11.4562 6.10482 11.7548 5.8062 12.1371 5.72291C12.5195 5.63963 12.9152 5.78697 13.15 6.1L17.4 10.35C17.5961 10.5299 17.7077 10.7839 17.7077 11.05C17.7077 11.3161 17.5961 11.5701 17.4 11.75C17.2154 11.9384 16.9638 12.0462 16.7 12.05ZM18.85 26.9C18.5689 26.9099 18.2967 26.801 18.1 26.6L13.9 22.35C13.587 22.1152 13.4396 21.7195 13.5229 21.3371C13.6062 20.9548 13.9048 20.6562 14.2871 20.5729C14.6695 20.4896 15.0652 20.637 15.3 20.95L19.55 25.2C19.7461 25.3799 19.8577 25.6339 19.8577 25.9C19.8577 26.1661 19.7461 26.4201 19.55 26.6C19.3654 26.7884 19.1138 26.8962 18.85 26.9Z"
    fill="#2A3035"
  />
</svg>