<svg xmlns="http://www.w3.org/2000/svg" width="16" height="16" viewBox="0 0 32 32" fill="none">
  <path fill-rule="evenodd" clip-rule="evenodd" d="M0.153329 26.729C-0.246586 27.3956 0.233526 28.2435 1.01082 28.2435H30.9893C31.7666 28.2435 32.2467 27.3956 31.8468 26.729L16.8575 1.74698C16.4691 1.09964 15.531 1.09964 15.1426 1.74698L0.153329 26.729ZM14.6038 10.0918C14.6038 9.32069 15.2289 8.69556 16 8.69556C16.7712 8.69556 17.3963 9.32069 17.3963 10.0918V18.4696C17.3963 19.2407 16.7712 19.8658 16 19.8658C15.2289 19.8658 14.6038 19.2407 14.6038 18.4696V10.0918ZM14.6037 22.6587C14.6037 21.8876 15.2288 21.2625 16 21.2625C16.7711 21.2625 17.3963 21.8876 17.3963 22.6587C17.3963 23.4299 16.7711 24.055 16 24.055C15.2288 24.055 14.6037 23.4299 14.6037 22.6587Z" fill="#2A3035"/>
</svg>