<svg width="40" height="40" viewBox="0 0 40 40" fill="none" xmlns="http://www.w3.org/2000/svg">
  <rect width="40" height="40" rx="8" fill="#F0F7FF"/>
  <path d="M15.5718 29C16.9066 28.3598 18.41 28 20 28C21.59 28 23.0934 28.3598 24.4282 29M14.8 25H25.2C26.8802 25 27.7202 25 28.362 24.673C28.9265 24.3854 29.3854 23.9265 29.673 23.362C30 22.7202 30 21.8802 30 20.2V15.8C30 14.1198 30 13.2798 29.673 12.638C29.3854 12.0735 28.9265 11.6146 28.362 11.327C27.7202 11 26.8802 11 25.2 11H14.8C13.1198 11 12.2798 11 11.638 11.327C11.0735 11.6146 10.6146 12.0735 10.327 12.638C10 13.2798 10 14.1198 10 15.8V20.2C10 21.8802 10 22.7202 10.327 23.362C10.6146 23.9265 11.0735 24.3854 11.638 24.673C12.2798 25 13.1198 25 14.8 25Z" stroke="url(#paint0_linear_497_51248)" stroke-width="2" stroke-linecap="round" stroke-linejoin="round"/>
  <path d="M15.5718 29C16.9066 28.3598 18.41 28 20 28C21.59 28 23.0934 28.3598 24.4282 29M14.8 25H25.2C26.8802 25 27.7202 25 28.362 24.673C28.9265 24.3854 29.3854 23.9265 29.673 23.362C30 22.7202 30 21.8802 30 20.2V15.8C30 14.1198 30 13.2798 29.673 12.638C29.3854 12.0735 28.9265 11.6146 28.362 11.327C27.7202 11 26.8802 11 25.2 11H14.8C13.1198 11 12.2798 11 11.638 11.327C11.0735 11.6146 10.6146 12.0735 10.327 12.638C10 13.2798 10 14.1198 10 15.8V20.2C10 21.8802 10 22.7202 10.327 23.362C10.6146 23.9265 11.0735 24.3854 11.638 24.673C12.2798 25 13.1198 25 14.8 25Z" stroke="black" stroke-opacity="0.2" stroke-width="2" stroke-linecap="round" stroke-linejoin="round"/>
  <defs>
    <linearGradient id="paint0_linear_497_51248" x1="11" y1="6.725" x2="11" y2="37.1" gradientUnits="userSpaceOnUse">
      <stop offset="0.1875" stop-color="#173DA6"/>
      <stop offset="0.78125" stop-color="#29CCF3"/>
      <stop offset="1" stop-color="#60AF86"/>
    </linearGradient>
  </defs>
</svg>
