<svg width="24" height="24" viewBox="0 0 24 24" fill="none" xmlns="http://www.w3.org/2000/svg">
<path d="M22 12V16.2C22 17.8801 22 18.7202 21.673 19.362C21.3854 19.9265 20.9265 20.3854 20.362 20.673C19.7202 21 18.8801 21 17.2 21H6.8C5.11984 21 4.27976 21 3.63803 20.673C3.07354 20.3854 2.6146 19.9265 2.32698 19.362C2 18.7202 2 17.8802 2 16.2V9M2 9V7.8C2 6.11984 2 5.27976 2.32698 4.63803C2.6146 4.07354 3.07354 3.6146 3.63803 3.32698C4.27976 3 5.11984 3 6.8 3H15M2 9L10 9M5 6H5.01M8 6H8.01M11 6H11.01" stroke="url(#paint0_linear_773_96533)" stroke-width="2" stroke-linecap="round" stroke-linejoin="round"/>
<path d="M11 13.577C11 13.1613 11 12.9535 11.047 12.7579C11.0886 12.5845 11.1573 12.4187 11.2504 12.2666C11.3556 12.0951 11.5025 11.9481 11.7965 11.6542L19.9227 3.52798C20.6267 2.82401 21.768 2.82401 22.472 3.52798C23.176 4.23196 23.176 5.37334 22.472 6.07732L14.3458 14.2035C14.0519 14.4975 13.9049 14.6445 13.7334 14.7496C13.5813 14.8427 13.4155 14.9114 13.2421 14.953C13.0465 15 12.8387 15 12.423 15H11V13.577Z" stroke="url(#paint1_linear_773_96533)" stroke-width="2" stroke-linecap="round" stroke-linejoin="round"/>
<defs>
<linearGradient id="paint0_linear_773_96533" x1="3" y1="-1.275" x2="3" y2="29.1" gradientUnits="userSpaceOnUse">
<stop offset="0.1875" stop-color="#173DA6"/>
<stop offset="0.78125" stop-color="#29CCF3"/>
<stop offset="1" stop-color="#60AF86"/>
</linearGradient>
<linearGradient id="paint1_linear_773_96533" x1="11.6" y1="0.15" x2="11.6" y2="20.4" gradientUnits="userSpaceOnUse">
<stop offset="0.1875" stop-color="#173DA6"/>
<stop offset="0.78125" stop-color="#29CCF3"/>
<stop offset="1" stop-color="#60AF86"/>
</linearGradient>
</defs>
</svg>
